{
	"asset":{
		"generator":"Khronos glTF Blender I/O v4.1.62",
		"version":"2.0"
	},
	"extensionsUsed":[
		"KHR_materials_clearcoat",
		"KHR_materials_specular",
		"KHR_materials_anisotropy",
		"KHR_materials_ior",
		"KHR_texture_transform"
	],
	"extensionsRequired":[
		"KHR_texture_transform"
	],
	"scene":0,
	"scenes":[
		{
			"name":"Scene",
			"nodes":[
				1
			]
		}
	],
	"nodes":[
		{
			"mesh":0,
			"name":"Object_12",
			"scale":[
				1.0000637769699097,
				1.064612865447998,
				1.7615811824798584
			],
			"translation":[
				5678.7763671875,
				-21.766845703125,
				168.40585327148438
			]
		},
		{
			"children":[
				0
			],
			"name":"3_4",
			"rotation":[
				0,
				-0.9999832510948181,
				0,
				0.005791827104985714
			],
			"scale":[
				0.0010000000474974513,
				0.0010000000474974513,
				0.0010000000474974513
			],
			"translation":[
				0.3873356878757477,
				0.9595072269439697,
				0.010388553142547607
			]
		}
	],
	"materials":[
		{
			"doubleSided":true,
			"extensions":{
				"KHR_materials_clearcoat":{
					"clearcoatFactor":0.02500000037252903,
					"clearcoatRoughnessFactor":0.029999999329447746
				},
				"KHR_materials_specular":{
					"specularFactor":0.1709090918302536
				},
				"KHR_materials_anisotropy":{
					"anisotropyStrength":0.11636363714933395
				},
				"KHR_materials_ior":{
					"ior":1.4500000476837158
				}
			},
			"name":"Sandblasted black metal",
			"normalTexture":{
				"extensions":{
					"KHR_texture_transform":{
						"offset":[
							0,
							-9
						],
						"scale":[
							10,
							10
						]
					}
				},
				"index":0,
				"texCoord":1
			},
			"occlusionTexture":{
				"extensions":{
					"KHR_texture_transform":{
						"offset":[
							0,
							-9
						],
						"scale":[
							10,
							10
						]
					}
				},
				"index":1,
				"texCoord":1
			},
			"pbrMetallicRoughness":{
				"baseColorTexture":{
					"extensions":{
						"KHR_texture_transform":{
							"offset":[
								0,
								-9
							],
							"scale":[
								10,
								10
							]
						}
					},
					"index":2,
					"texCoord":1
				},
				"metallicRoughnessTexture":{
					"extensions":{
						"KHR_texture_transform":{
							"offset":[
								0,
								-9
							],
							"scale":[
								10,
								10
							]
						}
					},
					"index":3,
					"texCoord":1
				}
			}
		}
	],
	"meshes":[
		{
			"name":"Object_4",
			"primitives":[
				{
					"attributes":{
						"POSITION":0,
						"NORMAL":1,
						"TEXCOORD_0":2,
						"TEXCOORD_1":3
					},
					"indices":4,
					"material":0
				}
			]
		}
	],
	"textures":[
		{
			"sampler":0,
			"source":0
		},
		{
			"sampler":0,
			"source":1
		},
		{
			"sampler":0,
			"source":2
		},
		{
			"sampler":0,
			"source":3
		}
	],
	"images":[
		{
			"mimeType":"image/jpeg",
			"name":"sandblasted-blackmetal-normal",
			"uri":"sandblasted-blackmetal-normal.jpg"
		},
		{
			"mimeType":"image/jpeg",
			"name":"sandblasted-blackmetal-ao",
			"uri":"sandblasted-blackmetal-ao.jpg"
		},
		{
			"mimeType":"image/jpeg",
			"name":"sandblasted-blackmetal-diffuse",
			"uri":"sandblasted-blackmetal-diffuse.jpg"
		},
		{
			"mimeType":"image/png",
			"name":"sandblasted-blackmetal-metallic.jpg-sandblasted-blackmetal-roughness.jpg",
			"uri":"sandblasted-blackmetal-metallic_jpg-sandblasted-blackmetal-roughness_jpg.png"
		}
	],
	"accessors":[
		{
			"bufferView":0,
			"componentType":5126,
			"count":2919,
			"max":[
				1057.72509765625,
				750.0005493164062,
				40.04136276245117
			],
			"min":[
				-292.79840087890625,
				-749.9993286132812,
				-35.511573791503906
			],
			"type":"VEC3"
		},
		{
			"bufferView":1,
			"componentType":5126,
			"count":2919,
			"type":"VEC3"
		},
		{
			"bufferView":2,
			"componentType":5126,
			"count":2919,
			"type":"VEC2"
		},
		{
			"bufferView":3,
			"componentType":5126,
			"count":2919,
			"type":"VEC2"
		},
		{
			"bufferView":4,
			"componentType":5123,
			"count":4134,
			"type":"SCALAR"
		}
	],
	"bufferViews":[
		{
			"buffer":0,
			"byteLength":35028,
			"byteOffset":0,
			"target":34962
		},
		{
			"buffer":0,
			"byteLength":35028,
			"byteOffset":35028,
			"target":34962
		},
		{
			"buffer":0,
			"byteLength":23352,
			"byteOffset":70056,
			"target":34962
		},
		{
			"buffer":0,
			"byteLength":23352,
			"byteOffset":93408,
			"target":34962
		},
		{
			"buffer":0,
			"byteLength":8268,
			"byteOffset":116760,
			"target":34963
		}
	],
	"samplers":[
		{
			"magFilter":9729,
			"minFilter":9987
		}
	],
	"buffers":[
		{
			"byteLength":125028,
			"uri":"WindowDoor.bin"
		}
	]
}
