{
	"asset":{
		"generator":"Khronos glTF Blender I/O v4.1.62",
		"version":"2.0"
	},
	"extensionsUsed":[
		"KHR_materials_unlit"
	],
	"scene":0,
	"scenes":[
		{
			"name":"Scene",
			"nodes":[
				20
			]
		}
	],
	"nodes":[
		{
			"mesh":0,
			"name":"Cube.002_0"
		},
		{
			"children":[
				0
			],
			"name":"Cube.005",
			"translation":[
				1.396249771118164,
				0,
				0.49540024995803833
			]
		},
		{
			"mesh":1,
			"name":"Cube.003_0"
		},
		{
			"children":[
				2
			],
			"name":"Cube.006",
			"translation":[
				0.5060403943061829,
				-0.28433001041412354,
				0.49540019035339355
			]
		},
		{
			"mesh":2,
			"name":"Cube.007_0"
		},
		{
			"children":[
				4
			],
			"name":"Cube.007",
			"translation":[
				-0.5728710293769836,
				-0.8207499384880066,
				0.48063018918037415
			]
		},
		{
			"mesh":3,
			"name":"Cube.009_0"
		},
		{
			"children":[
				6
			],
			"name":"Cube.009",
			"translation":[
				0.012499398551881313,
				0.4900399446487427,
				0.20648016035556793
			]
		},
		{
			"mesh":4,
			"name":"Cube.010_0"
		},
		{
			"children":[
				8
			],
			"name":"Cube.010",
			"rotation":[
				0,
				0,
				0.7071068286895752,
				0.7071067094802856
			],
			"translation":[
				1.86142897605896,
				-1.528389811515808,
				0.4806300699710846
			]
		},
		{
			"mesh":5,
			"name":"Cube.012_0"
		},
		{
			"children":[
				10
			],
			"name":"Cube.012",
			"translation":[
				0.6322287917137146,
				0,
				0.43714016675949097
			]
		},
		{
			"mesh":6,
			"name":"Cube.013_0"
		},
		{
			"children":[
				12
			],
			"name":"Cube.013",
			"translation":[
				-1.4029507637023926,
				0,
				0.43714016675949097
			]
		},
		{
			"mesh":7,
			"name":"Cube.014_0"
		},
		{
			"children":[
				14
			],
			"name":"Cube.014",
			"translation":[
				0.5060389041900635,
				0.9309999346733093,
				0.49540016055107117
			]
		},
		{
			"mesh":8,
			"name":"Cube.015_0"
		},
		{
			"children":[
				16
			],
			"name":"Cube.015",
			"translation":[
				-0.42137080430984497,
				0,
				0.43714016675949097
			]
		},
		{
			"name":"Plane",
			"scale":[
				9.999998092651367,
				9.999998092651367,
				9.999999046325684
			],
			"translation":[
				0.006859990768134594,
				1.1909698247909546,
				8.012385660549626e-05
			]
		},
		{
			"children":[
				1,
				3,
				5,
				7,
				9,
				11,
				13,
				15,
				17,
				18
			],
			"name":"Root"
		},
		{
			"children":[
				19
			],
			"name":"Sofa",
			"rotation":[
				-0.5009272694587708,
				0.4990711212158203,
				0.4990711212158203,
				0.5009271502494812
			],
			"scale":[
				2.70233154296875,
				2.70233154296875,
				2.702331304550171
			],
			"translation":[
				-0.9993545413017273,
				-5.029964923858643,
				28.626663208007812
			]
		}
	],
	"materials":[
		{
			"doubleSided":true,
			"extensions":{
				"KHR_materials_unlit":{}
			},
			"name":"Material.009",
			"pbrMetallicRoughness":{
				"baseColorTexture":{
					"index":0
				},
				"metallicFactor":0,
				"roughnessFactor":0.9
			}
		},
		{
			"doubleSided":true,
			"extensions":{
				"KHR_materials_unlit":{}
			},
			"name":"Material.006",
			"pbrMetallicRoughness":{
				"baseColorTexture":{
					"index":1
				},
				"metallicFactor":0,
				"roughnessFactor":0.9
			}
		},
		{
			"doubleSided":true,
			"extensions":{
				"KHR_materials_unlit":{}
			},
			"name":"Material.013",
			"pbrMetallicRoughness":{
				"baseColorTexture":{
					"index":2
				},
				"metallicFactor":0,
				"roughnessFactor":0.9
			}
		},
		{
			"doubleSided":true,
			"extensions":{
				"KHR_materials_unlit":{}
			},
			"name":"Material.014",
			"pbrMetallicRoughness":{
				"baseColorTexture":{
					"index":3
				},
				"metallicFactor":0,
				"roughnessFactor":0.9
			}
		},
		{
			"doubleSided":true,
			"extensions":{
				"KHR_materials_unlit":{}
			},
			"name":"Material.015",
			"pbrMetallicRoughness":{
				"baseColorTexture":{
					"index":4
				},
				"metallicFactor":0,
				"roughnessFactor":0.9
			}
		},
		{
			"doubleSided":true,
			"extensions":{
				"KHR_materials_unlit":{}
			},
			"name":"Material.012",
			"pbrMetallicRoughness":{
				"baseColorTexture":{
					"index":5
				},
				"metallicFactor":0,
				"roughnessFactor":0.9
			}
		},
		{
			"doubleSided":true,
			"extensions":{
				"KHR_materials_unlit":{}
			},
			"name":"Material.010",
			"pbrMetallicRoughness":{
				"baseColorTexture":{
					"index":6
				},
				"metallicFactor":0,
				"roughnessFactor":0.9
			}
		},
		{
			"doubleSided":true,
			"extensions":{
				"KHR_materials_unlit":{}
			},
			"name":"Material.008",
			"pbrMetallicRoughness":{
				"baseColorTexture":{
					"index":7
				},
				"metallicFactor":0,
				"roughnessFactor":0.9
			}
		},
		{
			"doubleSided":true,
			"extensions":{
				"KHR_materials_unlit":{}
			},
			"name":"Material.011",
			"pbrMetallicRoughness":{
				"baseColorTexture":{
					"index":8
				},
				"metallicFactor":0,
				"roughnessFactor":0.9
			}
		}
	],
	"meshes":[
		{
			"name":"Cube.002_0",
			"primitives":[
				{
					"attributes":{
						"POSITION":0,
						"NORMAL":1,
						"TEXCOORD_0":2
					},
					"indices":3,
					"material":0
				}
			]
		},
		{
			"name":"Cube.003_0",
			"primitives":[
				{
					"attributes":{
						"POSITION":4,
						"NORMAL":5,
						"TEXCOORD_0":6
					},
					"indices":7,
					"material":1
				}
			]
		},
		{
			"name":"Cube.007_0",
			"primitives":[
				{
					"attributes":{
						"POSITION":8,
						"NORMAL":9,
						"TEXCOORD_0":10
					},
					"indices":11,
					"material":2
				}
			]
		},
		{
			"name":"Cube.009_0",
			"primitives":[
				{
					"attributes":{
						"POSITION":12,
						"NORMAL":13,
						"TEXCOORD_0":14
					},
					"indices":15,
					"material":3
				}
			]
		},
		{
			"name":"Cube.010_0",
			"primitives":[
				{
					"attributes":{
						"POSITION":16,
						"NORMAL":17,
						"TEXCOORD_0":18
					},
					"indices":19,
					"material":4
				}
			]
		},
		{
			"name":"Cube.012_0",
			"primitives":[
				{
					"attributes":{
						"POSITION":20,
						"NORMAL":21,
						"TEXCOORD_0":22
					},
					"indices":23,
					"material":5
				}
			]
		},
		{
			"name":"Cube.013_0",
			"primitives":[
				{
					"attributes":{
						"POSITION":24,
						"NORMAL":25,
						"TEXCOORD_0":26
					},
					"indices":23,
					"material":6
				}
			]
		},
		{
			"name":"Cube.014_0",
			"primitives":[
				{
					"attributes":{
						"POSITION":27,
						"NORMAL":28,
						"TEXCOORD_0":29
					},
					"indices":30,
					"material":7
				}
			]
		},
		{
			"name":"Cube.015_0",
			"primitives":[
				{
					"attributes":{
						"POSITION":31,
						"NORMAL":32,
						"TEXCOORD_0":33
					},
					"indices":23,
					"material":8
				}
			]
		}
	],
	"textures":[
		{
			"sampler":0,
			"source":0
		},
		{
			"sampler":0,
			"source":1
		},
		{
			"sampler":0,
			"source":2
		},
		{
			"sampler":0,
			"source":3
		},
		{
			"sampler":0,
			"source":4
		},
		{
			"sampler":0,
			"source":5
		},
		{
			"sampler":0,
			"source":6
		},
		{
			"sampler":0,
			"source":7
		},
		{
			"sampler":0,
			"source":8
		}
	],
	"images":[
		{
			"mimeType":"image/png",
			"name":"Image_8",
			"uri":"Image_8.png"
		},
		{
			"mimeType":"image/png",
			"name":"Image_7",
			"uri":"Image_7.png"
		},
		{
			"mimeType":"image/png",
			"name":"Image_6",
			"uri":"Image_6.png"
		},
		{
			"mimeType":"image/png",
			"name":"Image_5",
			"uri":"Image_5.png"
		},
		{
			"mimeType":"image/png",
			"name":"Image_4",
			"uri":"Image_4.png"
		},
		{
			"mimeType":"image/png",
			"name":"Image_3",
			"uri":"Image_3.png"
		},
		{
			"mimeType":"image/png",
			"name":"Image_2",
			"uri":"Image_2.png"
		},
		{
			"mimeType":"image/png",
			"name":"Image_1",
			"uri":"Image_1.png"
		},
		{
			"mimeType":"image/png",
			"name":"Image_0",
			"uri":"Image_0.png"
		}
	],
	"accessors":[
		{
			"bufferView":0,
			"componentType":5126,
			"count":15010,
			"max":[
				-0.3901500105857849,
				0.8008900284767151,
				0.08211000263690948
			],
			"min":[
				-2.4012300968170166,
				-0.028950000181794167,
				-0.11964999884366989
			],
			"type":"VEC3"
		},
		{
			"bufferView":1,
			"componentType":5126,
			"count":15010,
			"type":"VEC3"
		},
		{
			"bufferView":2,
			"componentType":5126,
			"count":15010,
			"type":"VEC2"
		},
		{
			"bufferView":3,
			"componentType":5123,
			"count":84096,
			"type":"SCALAR"
		},
		{
			"bufferView":4,
			"componentType":5126,
			"count":2372,
			"max":[
				1.3092700242996216,
				0.00015999999595806003,
				0.08549000322818756
			],
			"min":[
				0.49279001355171204,
				-1.2120699882507324,
				-0.10875000059604645
			],
			"type":"VEC3"
		},
		{
			"bufferView":5,
			"componentType":5126,
			"count":2372,
			"type":"VEC3"
		},
		{
			"bufferView":6,
			"componentType":5126,
			"count":2372,
			"type":"VEC2"
		},
		{
			"bufferView":7,
			"componentType":5123,
			"count":12864,
			"type":"SCALAR"
		},
		{
			"bufferView":8,
			"componentType":5126,
			"count":11332,
			"max":[
				2.5680899620056152,
				1.7844799757003784,
				0.4994400143623352
			],
			"min":[
				2.375190019607544,
				0.02428000047802925,
				-0.09136000275611877
			],
			"type":"VEC3"
		},
		{
			"bufferView":9,
			"componentType":5126,
			"count":11332,
			"type":"VEC3"
		},
		{
			"bufferView":10,
			"componentType":5126,
			"count":11332,
			"type":"VEC2"
		},
		{
			"bufferView":11,
			"componentType":5123,
			"count":43392,
			"type":"SCALAR"
		},
		{
			"bufferView":12,
			"componentType":5126,
			"count":22328,
			"max":[
				2.2814600467681885,
				0.5169500112533569,
				0.19041000306606293
			],
			"min":[
				-1,
				-1.9759199619293213,
				-0.19041000306606293
			],
			"type":"VEC3"
		},
		{
			"bufferView":13,
			"componentType":5126,
			"count":22328,
			"type":"VEC3"
		},
		{
			"bufferView":14,
			"componentType":5126,
			"count":22328,
			"type":"VEC2"
		},
		{
			"bufferView":15,
			"componentType":5123,
			"count":128256,
			"type":"SCALAR"
		},
		{
			"bufferView":16,
			"componentType":5126,
			"count":12113,
			"max":[
				2.5202200412750244,
				2.8415000438690186,
				0.4994400143623352
			],
			"min":[
				2.3309199810028076,
				0.03864999860525131,
				-0.09136000275611877
			],
			"type":"VEC3"
		},
		{
			"bufferView":17,
			"componentType":5126,
			"count":12113,
			"type":"VEC3"
		},
		{
			"bufferView":18,
			"componentType":5126,
			"count":12113,
			"type":"VEC2"
		},
		{
			"bufferView":19,
			"componentType":5123,
			"count":43392,
			"type":"SCALAR"
		},
		{
			"bufferView":20,
			"componentType":5126,
			"count":1038,
			"max":[
				1.1790200471878052,
				0.8504199981689453,
				0.6657900214195251
			],
			"min":[
				0.3490000069141388,
				0.5487300157546997,
				0.06898000091314316
			],
			"type":"VEC3"
		},
		{
			"bufferView":21,
			"componentType":5126,
			"count":1038,
			"type":"VEC3"
		},
		{
			"bufferView":22,
			"componentType":5126,
			"count":1038,
			"type":"VEC2"
		},
		{
			"bufferView":23,
			"componentType":5123,
			"count":5808,
			"type":"SCALAR"
		},
		{
			"bufferView":24,
			"componentType":5126,
			"count":1038,
			"max":[
				1.3988800048828125,
				0.8504199981689453,
				0.6657800078392029
			],
			"min":[
				0.4140799939632416,
				0.5499299764633179,
				0.06898000091314316
			],
			"type":"VEC3"
		},
		{
			"bufferView":25,
			"componentType":5126,
			"count":1038,
			"type":"VEC3"
		},
		{
			"bufferView":26,
			"componentType":5126,
			"count":1038,
			"type":"VEC2"
		},
		{
			"bufferView":27,
			"componentType":5126,
			"count":2447,
			"max":[
				1.3092700242996216,
				-0.10577999800443649,
				0.0851299986243248
			],
			"min":[
				0.4928300082683563,
				-1.215250015258789,
				-0.10875000059604645
			],
			"type":"VEC3"
		},
		{
			"bufferView":28,
			"componentType":5126,
			"count":2447,
			"type":"VEC3"
		},
		{
			"bufferView":29,
			"componentType":5126,
			"count":2447,
			"type":"VEC2"
		},
		{
			"bufferView":30,
			"componentType":5123,
			"count":12864,
			"type":"SCALAR"
		},
		{
			"bufferView":31,
			"componentType":5126,
			"count":1038,
			"max":[
				1.3988800048828125,
				0.8504199981689453,
				0.6657800078392029
			],
			"min":[
				0.4140799939632416,
				0.5499299764633179,
				0.06898000091314316
			],
			"type":"VEC3"
		},
		{
			"bufferView":32,
			"componentType":5126,
			"count":1038,
			"type":"VEC3"
		},
		{
			"bufferView":33,
			"componentType":5126,
			"count":1038,
			"type":"VEC2"
		}
	],
	"bufferViews":[
		{
			"buffer":0,
			"byteLength":180120,
			"byteOffset":0,
			"target":34962
		},
		{
			"buffer":0,
			"byteLength":180120,
			"byteOffset":180120,
			"target":34962
		},
		{
			"buffer":0,
			"byteLength":120080,
			"byteOffset":360240,
			"target":34962
		},
		{
			"buffer":0,
			"byteLength":168192,
			"byteOffset":480320,
			"target":34963
		},
		{
			"buffer":0,
			"byteLength":28464,
			"byteOffset":648512,
			"target":34962
		},
		{
			"buffer":0,
			"byteLength":28464,
			"byteOffset":676976,
			"target":34962
		},
		{
			"buffer":0,
			"byteLength":18976,
			"byteOffset":705440,
			"target":34962
		},
		{
			"buffer":0,
			"byteLength":25728,
			"byteOffset":724416,
			"target":34963
		},
		{
			"buffer":0,
			"byteLength":135984,
			"byteOffset":750144,
			"target":34962
		},
		{
			"buffer":0,
			"byteLength":135984,
			"byteOffset":886128,
			"target":34962
		},
		{
			"buffer":0,
			"byteLength":90656,
			"byteOffset":1022112,
			"target":34962
		},
		{
			"buffer":0,
			"byteLength":86784,
			"byteOffset":1112768,
			"target":34963
		},
		{
			"buffer":0,
			"byteLength":267936,
			"byteOffset":1199552,
			"target":34962
		},
		{
			"buffer":0,
			"byteLength":267936,
			"byteOffset":1467488,
			"target":34962
		},
		{
			"buffer":0,
			"byteLength":178624,
			"byteOffset":1735424,
			"target":34962
		},
		{
			"buffer":0,
			"byteLength":256512,
			"byteOffset":1914048,
			"target":34963
		},
		{
			"buffer":0,
			"byteLength":145356,
			"byteOffset":2170560,
			"target":34962
		},
		{
			"buffer":0,
			"byteLength":145356,
			"byteOffset":2315916,
			"target":34962
		},
		{
			"buffer":0,
			"byteLength":96904,
			"byteOffset":2461272,
			"target":34962
		},
		{
			"buffer":0,
			"byteLength":86784,
			"byteOffset":2558176,
			"target":34963
		},
		{
			"buffer":0,
			"byteLength":12456,
			"byteOffset":2644960,
			"target":34962
		},
		{
			"buffer":0,
			"byteLength":12456,
			"byteOffset":2657416,
			"target":34962
		},
		{
			"buffer":0,
			"byteLength":8304,
			"byteOffset":2669872,
			"target":34962
		},
		{
			"buffer":0,
			"byteLength":11616,
			"byteOffset":2678176,
			"target":34963
		},
		{
			"buffer":0,
			"byteLength":12456,
			"byteOffset":2689792,
			"target":34962
		},
		{
			"buffer":0,
			"byteLength":12456,
			"byteOffset":2702248,
			"target":34962
		},
		{
			"buffer":0,
			"byteLength":8304,
			"byteOffset":2714704,
			"target":34962
		},
		{
			"buffer":0,
			"byteLength":29364,
			"byteOffset":2723008,
			"target":34962
		},
		{
			"buffer":0,
			"byteLength":29364,
			"byteOffset":2752372,
			"target":34962
		},
		{
			"buffer":0,
			"byteLength":19576,
			"byteOffset":2781736,
			"target":34962
		},
		{
			"buffer":0,
			"byteLength":25728,
			"byteOffset":2801312,
			"target":34963
		},
		{
			"buffer":0,
			"byteLength":12456,
			"byteOffset":2827040,
			"target":34962
		},
		{
			"buffer":0,
			"byteLength":12456,
			"byteOffset":2839496,
			"target":34962
		},
		{
			"buffer":0,
			"byteLength":8304,
			"byteOffset":2851952,
			"target":34962
		}
	],
	"samplers":[
		{
			"magFilter":9729,
			"minFilter":9987
		}
	],
	"buffers":[
		{
			"byteLength":2860256,
			"uri":"Sofa.bin"
		}
	]
}
