{
	"asset":{
		"generator":"Khronos glTF Blender I/O v4.1.62",
		"version":"2.0"
	},
	"scene":0,
	"scenes":[
		{
			"name":"Scene",
			"nodes":[
				0,
				1,
				2
			]
		}
	],
	"nodes":[
		{
			"mesh":0,
			"name":"Curtain 1",
			"scale":[
				2.3845198154449463,
				2.7849719524383545,
				3.268002986907959
			],
			"translation":[
				-7.2481913566589355,
				0.5196101665496826,
				8.507181167602539
			]
		},
		{
			"mesh":1,
			"name":"Curtain Rod",
			"scale":[
				5.6042656898498535,
				5.6042656898498535,
				7.959362030029297
			],
			"translation":[
				-7.433093070983887,
				4.526969909667969,
				0.0004943907260894775
			]
		},
		{
			"mesh":2,
			"name":"Curtain 2",
			"scale":[
				2.3845198154449463,
				2.7849719524383545,
				4.424485683441162
			],
			"translation":[
				-7.2481913566589355,
				0.5196101665496826,
				-8.088879585266113
			]
		}
	],
	"materials":[
		{
			"doubleSided":true,
			"name":"Curtain",
			"pbrMetallicRoughness":{
				"baseColorTexture":{
					"index":0
				},
				"metallicFactor":0,
				"roughnessFactor":0.5
			}
		}
	],
	"meshes":[
		{
			"name":"Plane.006",
			"primitives":[
				{
					"attributes":{
						"POSITION":0,
						"NORMAL":1,
						"TEXCOORD_0":2
					},
					"indices":3,
					"material":0
				}
			]
		},
		{
			"name":"Cube.005",
			"primitives":[
				{
					"attributes":{
						"POSITION":4,
						"NORMAL":5,
						"TEXCOORD_0":6
					},
					"indices":7
				}
			]
		},
		{
			"name":"Plane.003",
			"primitives":[
				{
					"attributes":{
						"POSITION":8,
						"NORMAL":9,
						"TEXCOORD_0":10
					},
					"indices":3,
					"material":0
				}
			]
		}
	],
	"textures":[
		{
			"sampler":0,
			"source":0
		}
	],
	"images":[
		{
			"mimeType":"image/png",
			"name":"curtain",
			"uri":"curtain.png"
		}
	],
	"accessors":[
		{
			"bufferView":0,
			"componentType":5126,
			"count":324,
			"max":[
				0.04842233657836914,
				1.5401185750961304,
				0.36458301544189453
			],
			"min":[
				-0.07624506950378418,
				-1.9295358657836914,
				-0.3566589951515198
			],
			"type":"VEC3"
		},
		{
			"bufferView":1,
			"componentType":5126,
			"count":324,
			"type":"VEC3"
		},
		{
			"bufferView":2,
			"componentType":5126,
			"count":324,
			"type":"VEC2"
		},
		{
			"bufferView":3,
			"componentType":5123,
			"count":1680,
			"type":"SCALAR"
		},
		{
			"bufferView":4,
			"componentType":5126,
			"count":50,
			"max":[
				0.04616355895996094,
				0.06154894828796387,
				1.2170078754425049
			],
			"min":[
				-0.05366373062133789,
				-0.05404829978942871,
				-1.2170078754425049
			],
			"type":"VEC3"
		},
		{
			"bufferView":5,
			"componentType":5126,
			"count":50,
			"type":"VEC3"
		},
		{
			"bufferView":6,
			"componentType":5126,
			"count":50,
			"type":"VEC2"
		},
		{
			"bufferView":7,
			"componentType":5123,
			"count":84,
			"type":"SCALAR"
		},
		{
			"bufferView":8,
			"componentType":5126,
			"count":324,
			"max":[
				0.04842233657836914,
				1.5401185750961304,
				0.36458301544189453
			],
			"min":[
				-0.07624506950378418,
				-1.9295358657836914,
				-0.3566589951515198
			],
			"type":"VEC3"
		},
		{
			"bufferView":9,
			"componentType":5126,
			"count":324,
			"type":"VEC3"
		},
		{
			"bufferView":10,
			"componentType":5126,
			"count":324,
			"type":"VEC2"
		}
	],
	"bufferViews":[
		{
			"buffer":0,
			"byteLength":3888,
			"byteOffset":0,
			"target":34962
		},
		{
			"buffer":0,
			"byteLength":3888,
			"byteOffset":3888,
			"target":34962
		},
		{
			"buffer":0,
			"byteLength":2592,
			"byteOffset":7776,
			"target":34962
		},
		{
			"buffer":0,
			"byteLength":3360,
			"byteOffset":10368,
			"target":34963
		},
		{
			"buffer":0,
			"byteLength":600,
			"byteOffset":13728,
			"target":34962
		},
		{
			"buffer":0,
			"byteLength":600,
			"byteOffset":14328,
			"target":34962
		},
		{
			"buffer":0,
			"byteLength":400,
			"byteOffset":14928,
			"target":34962
		},
		{
			"buffer":0,
			"byteLength":168,
			"byteOffset":15328,
			"target":34963
		},
		{
			"buffer":0,
			"byteLength":3888,
			"byteOffset":15496,
			"target":34962
		},
		{
			"buffer":0,
			"byteLength":3888,
			"byteOffset":19384,
			"target":34962
		},
		{
			"buffer":0,
			"byteLength":2592,
			"byteOffset":23272,
			"target":34962
		}
	],
	"samplers":[
		{
			"magFilter":9729,
			"minFilter":9987
		}
	],
	"buffers":[
		{
			"byteLength":25864,
			"uri":"Curtain.bin"
		}
	]
}
