{
	"asset":{
		"generator":"Khronos glTF Blender I/O v4.1.62",
		"version":"2.0"
	},
	"extensionsUsed":[
		"KHR_materials_specular",
		"KHR_texture_transform"
	],
	"extensionsRequired":[
		"KHR_texture_transform"
	],
	"scene":0,
	"scenes":[
		{
			"name":"Scene",
			"nodes":[
				1
			]
		}
	],
	"nodes":[
		{
			"mesh":0,
			"name":"DainTasker_Frame.005",
			"rotation":[
				0,
				-0.7001621723175049,
				0,
				0.7139838337898254
			],
			"scale":[
				12.492801666259766,
				12.49280071258545,
				12.492801666259766
			],
			"translation":[
				1327.1700439453125,
				-472.2047119140625,
				10646.6357421875
			]
		},
		{
			"children":[
				0
			],
			"name":"1154_DainTaskerPhotographyXRayOfLily.001",
			"scale":[
				0.004470483399927616,
				0.004470483399927616,
				0.004470483399927616
			],
			"translation":[
				1.180594563484192,
				0.35046201944351196,
				-9.578349113464355
			]
		}
	],
	"materials":[
		{
			"doubleSided":true,
			"extensions":{
				"KHR_materials_specular":{
					"specularColorFactor":[
						2.0,
						2.0,
						2.0
					]
				}
			},
			"name":"foil_VMT.001",
			"pbrMetallicRoughness":{
				"baseColorFactor":[
					0,
					0,
					0,
					1
				],
				"metallicRoughnessTexture":{
					"extensions":{
						"KHR_texture_transform":{
							"offset":[
								-29.43126067498823,
								89.57655285562855
							],
							"rotation":90,
							"scale":[
								10.999999672174463,
								10.999999672174463
							]
						}
					},
					"index":0
				},
				"roughnessFactor":0.5527864098548889
			}
		},
		{
			"alphaMode":"BLEND",
			"doubleSided":true,
			"name":"woman-5440728_1280",
			"pbrMetallicRoughness":{
				"baseColorTexture":{
					"index":1
				},
				"metallicFactor":0,
				"roughnessFactor":0.5
			}
		}
	],
	"meshes":[
		{
			"name":"Mesh.007",
			"primitives":[
				{
					"attributes":{
						"POSITION":0,
						"NORMAL":1,
						"TEXCOORD_0":2
					},
					"indices":3,
					"material":0
				},
				{
					"attributes":{
						"POSITION":4,
						"NORMAL":5,
						"TEXCOORD_0":6
					},
					"indices":7,
					"material":1
				}
			]
		}
	],
	"textures":[
		{
			"sampler":0,
			"source":0
		},
		{
			"sampler":1,
			"source":1
		}
	],
	"images":[
		{
			"mimeType":"image/png",
			"name":"Image",
			"uri":"Image.png"
		},
		{
			"mimeType":"image/png",
			"name":"woman-5440728_1280",
			"uri":"woman-5440728_1280.png"
		}
	],
	"accessors":[
		{
			"bufferView":0,
			"componentType":5126,
			"count":1006,
			"max":[
				29.693037033081055,
				70.0573959350586,
				0.8611836433410645
			],
			"min":[
				-29.693037033081055,
				0.035003662109375,
				-0.8611836433410645
			],
			"type":"VEC3"
		},
		{
			"bufferView":1,
			"componentType":5126,
			"count":1006,
			"type":"VEC3"
		},
		{
			"bufferView":2,
			"componentType":5126,
			"count":1006,
			"type":"VEC2"
		},
		{
			"bufferView":3,
			"componentType":5123,
			"count":4608,
			"type":"SCALAR"
		},
		{
			"bufferView":4,
			"componentType":5126,
			"count":4,
			"max":[
				28.69049644470215,
				69.13929748535156,
				-0.03792224079370499
			],
			"min":[
				-28.72847557067871,
				0.4299812316894531,
				-0.05234875530004501
			],
			"type":"VEC3"
		},
		{
			"bufferView":5,
			"componentType":5126,
			"count":4,
			"type":"VEC3"
		},
		{
			"bufferView":6,
			"componentType":5126,
			"count":4,
			"type":"VEC2"
		},
		{
			"bufferView":7,
			"componentType":5123,
			"count":6,
			"type":"SCALAR"
		}
	],
	"bufferViews":[
		{
			"buffer":0,
			"byteLength":12072,
			"byteOffset":0,
			"target":34962
		},
		{
			"buffer":0,
			"byteLength":12072,
			"byteOffset":12072,
			"target":34962
		},
		{
			"buffer":0,
			"byteLength":8048,
			"byteOffset":24144,
			"target":34962
		},
		{
			"buffer":0,
			"byteLength":9216,
			"byteOffset":32192,
			"target":34963
		},
		{
			"buffer":0,
			"byteLength":48,
			"byteOffset":41408,
			"target":34962
		},
		{
			"buffer":0,
			"byteLength":48,
			"byteOffset":41456,
			"target":34962
		},
		{
			"buffer":0,
			"byteLength":32,
			"byteOffset":41504,
			"target":34962
		},
		{
			"buffer":0,
			"byteLength":12,
			"byteOffset":41536,
			"target":34963
		}
	],
	"samplers":[
		{
			"magFilter":9729,
			"minFilter":9987
		},
		{
			"magFilter":9729,
			"minFilter":9987,
			"wrapS":33071,
			"wrapT":33071
		}
	],
	"buffers":[
		{
			"byteLength":41548,
			"uri":"PhotoFrame1.bin"
		}
	]
}
