{
	"asset":{
		"generator":"Khronos glTF Blender I/O v4.1.62",
		"version":"2.0"
	},
	"scene":0,
	"scenes":[
		{
			"name":"Scene",
			"nodes":[
				11
			]
		}
	],
	"nodes":[
		{
			"mesh":0,
			"name":"model_tex_u1_v1_0"
		},
		{
			"mesh":1,
			"name":"model_tex_u1_v1_0.001"
		},
		{
			"mesh":2,
			"name":"model_tex_u1_v1_0.002"
		},
		{
			"mesh":3,
			"name":"model_tex_u1_v1_0.003"
		},
		{
			"mesh":4,
			"name":"model_tex_u1_v1_0.004"
		},
		{
			"children":[
				0,
				1,
				2,
				3,
				4
			],
			"name":"model",
			"rotation":[
				0.008490657433867455,
				0.001493495306931436,
				-0.7071052193641663,
				0.7070558071136475
			],
			"scale":[
				1000.0000610351562,
				1000,
				999.9998779296875
			],
			"translation":[
				10.474693298339844,
				-8.085282325744629,
				-56.988441467285156
			]
		},
		{
			"mesh":5,
			"name":"Rug Bottom_Rug Bottom_0"
		},
		{
			"children":[
				6
			],
			"name":"Rug Bottom",
			"rotation":[
				0.008490657433867455,
				0.001493495306931436,
				-0.7071052193641663,
				0.7070558071136475
			],
			"scale":[
				1000.0000610351562,
				1000,
				999.9998779296875
			],
			"translation":[
				10.474693298339844,
				-8.085277557373047,
				-73.5683364868164
			]
		},
		{
			"children":[
				5,
				7
			],
			"name":"RUG",
			"rotation":[
				-0.70710688829422,
				0,
				0,
				0.7071066498756409
			],
			"translation":[
				-10.474700927734375,
				56.98847579956055,
				-8.085040092468262
			]
		},
		{
			"children":[
				8
			],
			"name":"RootNode",
			"translation":[
				0,
				1.3035110896453261e-05,
				0.0008892205660231411
			]
		},
		{
			"children":[
				9
			],
			"name":"Descanso White Rug v4.fbx",
			"rotation":[
				0.70710688829422,
				0,
				0,
				0.7071066498756409
			],
			"scale":[
				0.0010000001639127731,
				0.001000000280328095,
				0.0010000001639127731
			]
		},
		{
			"children":[
				10
			],
			"name":"Rug",
			"rotation":[
				-0.70710688829422,
				0,
				0,
				0.7071066498756409
			],
			"scale":[
				6.744859218597412,
				4.338728427886963,
				9.08269214630127
			],
			"translation":[
				0.7278734445571899,
				-5.399980545043945,
				27.220722198486328
			]
		}
	],
	"materials":[
		{
			"doubleSided":true,
			"name":"tex_u1_v1",
			"pbrMetallicRoughness":{
				"baseColorTexture":{
					"index":0
				},
				"metallicFactor":0,
				"roughnessFactor":0.8929713368415833
			}
		},
		{
			"doubleSided":true,
			"name":"Rug_Bottom",
			"pbrMetallicRoughness":{
				"baseColorTexture":{
					"index":1
				},
				"metallicFactor":0,
				"roughnessFactor":0.8929713368415833
			}
		}
	],
	"meshes":[
		{
			"name":"model_tex_u1_v1_0",
			"primitives":[
				{
					"attributes":{
						"POSITION":0,
						"NORMAL":1,
						"TEXCOORD_0":2,
						"TEXCOORD_1":3
					},
					"indices":4,
					"material":0
				}
			]
		},
		{
			"name":"model_tex_u1_v1_0.001",
			"primitives":[
				{
					"attributes":{
						"POSITION":5,
						"NORMAL":6,
						"TEXCOORD_0":7,
						"TEXCOORD_1":8
					},
					"indices":9,
					"material":0
				}
			]
		},
		{
			"name":"model_tex_u1_v1_0.002",
			"primitives":[
				{
					"attributes":{
						"POSITION":10,
						"NORMAL":11,
						"TEXCOORD_0":12,
						"TEXCOORD_1":13
					},
					"indices":9,
					"material":0
				}
			]
		},
		{
			"name":"model_tex_u1_v1_0.003",
			"primitives":[
				{
					"attributes":{
						"POSITION":14,
						"NORMAL":15,
						"TEXCOORD_0":16,
						"TEXCOORD_1":17
					},
					"indices":9,
					"material":0
				}
			]
		},
		{
			"name":"model_tex_u1_v1_0.004",
			"primitives":[
				{
					"attributes":{
						"POSITION":18,
						"NORMAL":19,
						"TEXCOORD_0":20,
						"TEXCOORD_1":21
					},
					"indices":22,
					"material":0
				}
			]
		},
		{
			"name":"Rug Bottom_Rug Bottom_0",
			"primitives":[
				{
					"attributes":{
						"POSITION":23,
						"NORMAL":24,
						"TEXCOORD_0":25,
						"TEXCOORD_1":26
					},
					"indices":27,
					"material":1
				}
			]
		}
	],
	"textures":[
		{
			"sampler":0,
			"source":0
		},
		{
			"sampler":0,
			"source":1
		}
	],
	"images":[
		{
			"mimeType":"image/jpeg",
			"name":"Image_1",
			"uri":"Image_1.jpg"
		},
		{
			"mimeType":"image/jpeg",
			"name":"Image_0",
			"uri":"Image_0.jpg"
		}
	],
	"accessors":[
		{
			"bufferView":0,
			"componentType":5126,
			"count":65715,
			"max":[
				1.1261582374572754,
				0.7820478081703186,
				0.08157731592655182
			],
			"min":[
				-1.1436660289764404,
				-0.8014721274375916,
				0.02381940744817257
			],
			"type":"VEC3"
		},
		{
			"bufferView":1,
			"componentType":5126,
			"count":65715,
			"type":"VEC3"
		},
		{
			"bufferView":2,
			"componentType":5126,
			"count":65715,
			"type":"VEC2"
		},
		{
			"bufferView":3,
			"componentType":5126,
			"count":65715,
			"type":"VEC2"
		},
		{
			"bufferView":4,
			"componentType":5125,
			"count":68028,
			"type":"SCALAR"
		},
		{
			"bufferView":5,
			"componentType":5126,
			"count":65532,
			"max":[
				1.1136069297790527,
				0.7796061635017395,
				0.08535542339086533
			],
			"min":[
				-1.1393898725509644,
				-0.7980033755302429,
				0.023926477879285812
			],
			"type":"VEC3"
		},
		{
			"bufferView":6,
			"componentType":5126,
			"count":65532,
			"type":"VEC3"
		},
		{
			"bufferView":7,
			"componentType":5126,
			"count":65532,
			"type":"VEC2"
		},
		{
			"bufferView":8,
			"componentType":5126,
			"count":65532,
			"type":"VEC2"
		},
		{
			"bufferView":9,
			"componentType":5123,
			"count":65532,
			"type":"SCALAR"
		},
		{
			"bufferView":10,
			"componentType":5126,
			"count":65532,
			"max":[
				1.0265291929244995,
				0.7818671464920044,
				0.06954676657915115
			],
			"min":[
				-1.1436660289764404,
				-0.8003145456314087,
				0.02381940744817257
			],
			"type":"VEC3"
		},
		{
			"bufferView":11,
			"componentType":5126,
			"count":65532,
			"type":"VEC3"
		},
		{
			"bufferView":12,
			"componentType":5126,
			"count":65532,
			"type":"VEC2"
		},
		{
			"bufferView":13,
			"componentType":5126,
			"count":65532,
			"type":"VEC2"
		},
		{
			"bufferView":14,
			"componentType":5126,
			"count":65532,
			"max":[
				1.1177406311035156,
				0.015631865710020065,
				0.08321508765220642
			],
			"min":[
				-1.0377142429351807,
				-0.8019437193870544,
				0.04912593960762024
			],
			"type":"VEC3"
		},
		{
			"bufferView":15,
			"componentType":5126,
			"count":65532,
			"type":"VEC3"
		},
		{
			"bufferView":16,
			"componentType":5126,
			"count":65532,
			"type":"VEC2"
		},
		{
			"bufferView":17,
			"componentType":5126,
			"count":65532,
			"type":"VEC2"
		},
		{
			"bufferView":18,
			"componentType":5126,
			"count":6231,
			"max":[
				1.1144181489944458,
				0.00710289878770709,
				0.08506862819194794
			],
			"min":[
				0.5884736776351929,
				-0.7954461574554443,
				0.06355822086334229
			],
			"type":"VEC3"
		},
		{
			"bufferView":19,
			"componentType":5126,
			"count":6231,
			"type":"VEC3"
		},
		{
			"bufferView":20,
			"componentType":5126,
			"count":6231,
			"type":"VEC2"
		},
		{
			"bufferView":21,
			"componentType":5126,
			"count":6231,
			"type":"VEC2"
		},
		{
			"bufferView":22,
			"componentType":5123,
			"count":6231,
			"type":"SCALAR"
		},
		{
			"bufferView":23,
			"componentType":5126,
			"count":10383,
			"max":[
				1.1259229183197021,
				0.7822161316871643,
				0.08749958872795105
			],
			"min":[
				-1.143899917602539,
				-0.8017796874046326,
				0.04031774029135704
			],
			"type":"VEC3"
		},
		{
			"bufferView":24,
			"componentType":5126,
			"count":10383,
			"type":"VEC3"
		},
		{
			"bufferView":25,
			"componentType":5126,
			"count":10383,
			"type":"VEC2"
		},
		{
			"bufferView":26,
			"componentType":5126,
			"count":10383,
			"type":"VEC2"
		},
		{
			"bufferView":27,
			"componentType":5123,
			"count":10383,
			"type":"SCALAR"
		}
	],
	"bufferViews":[
		{
			"buffer":0,
			"byteLength":788580,
			"byteOffset":0,
			"target":34962
		},
		{
			"buffer":0,
			"byteLength":788580,
			"byteOffset":788580,
			"target":34962
		},
		{
			"buffer":0,
			"byteLength":525720,
			"byteOffset":1577160,
			"target":34962
		},
		{
			"buffer":0,
			"byteLength":525720,
			"byteOffset":2102880,
			"target":34962
		},
		{
			"buffer":0,
			"byteLength":272112,
			"byteOffset":2628600,
			"target":34963
		},
		{
			"buffer":0,
			"byteLength":786384,
			"byteOffset":2900712,
			"target":34962
		},
		{
			"buffer":0,
			"byteLength":786384,
			"byteOffset":3687096,
			"target":34962
		},
		{
			"buffer":0,
			"byteLength":524256,
			"byteOffset":4473480,
			"target":34962
		},
		{
			"buffer":0,
			"byteLength":524256,
			"byteOffset":4997736,
			"target":34962
		},
		{
			"buffer":0,
			"byteLength":131064,
			"byteOffset":5521992,
			"target":34963
		},
		{
			"buffer":0,
			"byteLength":786384,
			"byteOffset":5653056,
			"target":34962
		},
		{
			"buffer":0,
			"byteLength":786384,
			"byteOffset":6439440,
			"target":34962
		},
		{
			"buffer":0,
			"byteLength":524256,
			"byteOffset":7225824,
			"target":34962
		},
		{
			"buffer":0,
			"byteLength":524256,
			"byteOffset":7750080,
			"target":34962
		},
		{
			"buffer":0,
			"byteLength":786384,
			"byteOffset":8274336,
			"target":34962
		},
		{
			"buffer":0,
			"byteLength":786384,
			"byteOffset":9060720,
			"target":34962
		},
		{
			"buffer":0,
			"byteLength":524256,
			"byteOffset":9847104,
			"target":34962
		},
		{
			"buffer":0,
			"byteLength":524256,
			"byteOffset":10371360,
			"target":34962
		},
		{
			"buffer":0,
			"byteLength":74772,
			"byteOffset":10895616,
			"target":34962
		},
		{
			"buffer":0,
			"byteLength":74772,
			"byteOffset":10970388,
			"target":34962
		},
		{
			"buffer":0,
			"byteLength":49848,
			"byteOffset":11045160,
			"target":34962
		},
		{
			"buffer":0,
			"byteLength":49848,
			"byteOffset":11095008,
			"target":34962
		},
		{
			"buffer":0,
			"byteLength":12462,
			"byteOffset":11144856,
			"target":34963
		},
		{
			"buffer":0,
			"byteLength":124596,
			"byteOffset":11157320,
			"target":34962
		},
		{
			"buffer":0,
			"byteLength":124596,
			"byteOffset":11281916,
			"target":34962
		},
		{
			"buffer":0,
			"byteLength":83064,
			"byteOffset":11406512,
			"target":34962
		},
		{
			"buffer":0,
			"byteLength":83064,
			"byteOffset":11489576,
			"target":34962
		},
		{
			"buffer":0,
			"byteLength":20766,
			"byteOffset":11572640,
			"target":34963
		}
	],
	"samplers":[
		{
			"magFilter":9729,
			"minFilter":9987
		}
	],
	"buffers":[
		{
			"byteLength":11593408,
			"uri":"Rug.bin"
		}
	]
}
