{
	"asset":{
		"generator":"Khronos glTF Blender I/O v4.1.62",
		"version":"2.0"
	},
	"scene":0,
	"scenes":[
		{
			"name":"Scene",
			"nodes":[
				16
			]
		}
	],
	"nodes":[
		{
			"mesh":0,
			"name":"Mesh1_M_06___Defaultdsa_0",
			"translation":[
				-3.0517578125e-05,
				-0.0004882809007540345,
				0.00390625
			]
		},
		{
			"children":[
				0
			],
			"name":"Mesh1",
			"translation":[
				-3.0517578125e-05,
				-0.0004882809007540345,
				0.00390625
			]
		},
		{
			"children":[
				1
			],
			"name":"grt_8_1",
			"translation":[
				-3.0517578125e-05,
				-0.0004882809007540345,
				0.00390625
			]
		},
		{
			"mesh":1,
			"name":"Mesh2_TEXTURE1_0",
			"translation":[
				-3.0517578125e-05,
				-0.0004882809007540345,
				0.00390625
			]
		},
		{
			"children":[
				3
			],
			"name":"Mesh2",
			"translation":[
				-3.0517578125e-05,
				-0.0004882809007540345,
				0.00390625
			]
		},
		{
			"children":[
				4
			],
			"name":"grt_8_2",
			"translation":[
				-3.0517578125e-05,
				-0.0004882809007540345,
				0.00390625
			]
		},
		{
			"children":[
				2,
				5
			],
			"name":"grt_8_",
			"translation":[
				-3.0517578125e-05,
				-0.0004882809007540345,
				0.00390625
			]
		},
		{
			"children":[
				6
			],
			"name":"Group11_1",
			"translation":[
				-3.0517578125e-05,
				-0.0004882809007540345,
				0.00390625
			]
		},
		{
			"mesh":2,
			"name":"Mesh3_grt_0",
			"translation":[
				-3.0517578125e-05,
				-0.0004882809007540345,
				0.00390625
			]
		},
		{
			"children":[
				8
			],
			"name":"Mesh3",
			"translation":[
				-3.0517578125e-05,
				-0.0004882809007540345,
				0.00390625
			]
		},
		{
			"children":[
				9
			],
			"name":"grt_8_4",
			"translation":[
				-3.0517578125e-05,
				-0.0004882809007540345,
				0.00390625
			]
		},
		{
			"children":[
				10
			],
			"name":"grt_8_3",
			"translation":[
				-3.0517578125e-05,
				-0.0004882809007540345,
				0.00390625
			]
		},
		{
			"children":[
				11
			],
			"name":"Group13_1",
			"translation":[
				-3.0517578125e-05,
				-0.0004882809007540345,
				0.00390625
			]
		},
		{
			"children":[
				7,
				12
			],
			"name":"Model",
			"translation":[
				-3.0517578125e-05,
				-0.0004882809007540345,
				0.00390625
			]
		},
		{
			"children":[
				13
			],
			"name":"RootNode.003",
			"translation":[
				-3.0517578125e-05,
				-0.0004882809007540345,
				0.00390625
			]
		},
		{
			"children":[
				14
			],
			"name":"Tree S2.fbx",
			"rotation":[
				0.70710688829422,
				0,
				0,
				0.7071066498756409
			],
			"scale":[
				0.009999998845160007,
				0.010000000707805157,
				0.010000000707805157
			],
			"translation":[
				0,
				4.556305157166207e-06,
				-2.6632915250957012e-06
			]
		},
		{
			"children":[
				15
			],
			"name":"Sketchfab_model.003",
			"rotation":[
				-0.70710688829422,
				0,
				0,
				0.7071066498756409
			],
			"scale":[
				0.10724877566099167,
				0.10724879801273346,
				0.10724879801273346
			],
			"translation":[
				0.38971585035324097,
				-3.6369643211364746,
				29.530847549438477
			]
		}
	],
	"materials":[
		{
			"doubleSided":true,
			"name":"M_06___Defaultdsa",
			"pbrMetallicRoughness":{
				"baseColorFactor":[
					0.49803900718688965,
					0.49803900718688965,
					0.49803900718688965,
					1
				],
				"metallicFactor":0,
				"roughnessFactor":0.9302135109901428
			}
		},
		{
			"doubleSided":true,
			"name":"TEXTURE1",
			"pbrMetallicRoughness":{
				"baseColorTexture":{
					"index":0
				},
				"metallicFactor":0,
				"roughnessFactor":0.9302135109901428
			}
		},
		{
			"doubleSided":true,
			"name":"material.002",
			"pbrMetallicRoughness":{
				"baseColorTexture":{
					"index":1
				},
				"metallicFactor":0,
				"roughnessFactor":0.9302135109901428
			}
		}
	],
	"meshes":[
		{
			"name":"Mesh1_M_06___Defaultdsa_0",
			"primitives":[
				{
					"attributes":{
						"POSITION":0,
						"NORMAL":1,
						"TEXCOORD_0":2,
						"TEXCOORD_1":3,
						"TEXCOORD_2":4,
						"TEXCOORD_3":5,
						"TEXCOORD_4":6,
						"TEXCOORD_5":7,
						"TEXCOORD_6":8,
						"TEXCOORD_7":9
					},
					"indices":10,
					"material":0
				}
			]
		},
		{
			"name":"Mesh2_TEXTURE1_0",
			"primitives":[
				{
					"attributes":{
						"POSITION":11,
						"NORMAL":12,
						"TEXCOORD_0":13,
						"TEXCOORD_1":14,
						"TEXCOORD_2":15,
						"TEXCOORD_3":16,
						"TEXCOORD_4":17,
						"TEXCOORD_5":18,
						"TEXCOORD_6":19,
						"TEXCOORD_7":20
					},
					"indices":21,
					"material":1
				}
			]
		},
		{
			"name":"Mesh3_grt_0",
			"primitives":[
				{
					"attributes":{
						"POSITION":22,
						"NORMAL":23,
						"TEXCOORD_0":24,
						"TEXCOORD_1":25,
						"TEXCOORD_2":26,
						"TEXCOORD_3":27,
						"TEXCOORD_4":28,
						"TEXCOORD_5":29,
						"TEXCOORD_6":30,
						"TEXCOORD_7":31
					},
					"indices":32,
					"material":2
				}
			]
		}
	],
	"textures":[
		{
			"sampler":0,
			"source":0
		},
		{
			"sampler":0,
			"source":1
		}
	],
	"images":[
		{
			"mimeType":"image/jpeg",
			"name":"Image_0",
			"uri":"Image_0.jpg"
		},
		{
			"mimeType":"image/jpeg",
			"name":"Image_1",
			"uri":"Image_1.jpg"
		}
	],
	"accessors":[
		{
			"bufferView":0,
			"componentType":5126,
			"count":22572,
			"max":[
				336.0562744140625,
				657.02685546875,
				3.979039320256561e-13
			],
			"min":[
				7.673861546209082e-13,
				1.1037832702964073e-13,
				-336.0562744140625
			],
			"type":"VEC3"
		},
		{
			"bufferView":1,
			"componentType":5126,
			"count":22572,
			"type":"VEC3"
		},
		{
			"bufferView":2,
			"componentType":5126,
			"count":22572,
			"type":"VEC2"
		},
		{
			"bufferView":3,
			"componentType":5126,
			"count":22572,
			"type":"VEC2"
		},
		{
			"bufferView":4,
			"componentType":5126,
			"count":22572,
			"type":"VEC2"
		},
		{
			"bufferView":5,
			"componentType":5126,
			"count":22572,
			"type":"VEC2"
		},
		{
			"bufferView":6,
			"componentType":5126,
			"count":22572,
			"type":"VEC2"
		},
		{
			"bufferView":7,
			"componentType":5126,
			"count":22572,
			"type":"VEC2"
		},
		{
			"bufferView":8,
			"componentType":5126,
			"count":22572,
			"type":"VEC2"
		},
		{
			"bufferView":9,
			"componentType":5126,
			"count":22572,
			"type":"VEC2"
		},
		{
			"bufferView":10,
			"componentType":5123,
			"count":30498,
			"type":"SCALAR"
		},
		{
			"bufferView":11,
			"componentType":5126,
			"count":255,
			"max":[
				325.0562438964844,
				645.6226806640625,
				-13.563989639282227
			],
			"min":[
				10.974133491516113,
				634.9114990234375,
				-323.2471618652344
			],
			"type":"VEC3"
		},
		{
			"bufferView":12,
			"componentType":5126,
			"count":255,
			"type":"VEC3"
		},
		{
			"bufferView":13,
			"componentType":5126,
			"count":255,
			"type":"VEC2"
		},
		{
			"bufferView":14,
			"componentType":5126,
			"count":255,
			"type":"VEC2"
		},
		{
			"bufferView":15,
			"componentType":5126,
			"count":255,
			"type":"VEC2"
		},
		{
			"bufferView":16,
			"componentType":5126,
			"count":255,
			"type":"VEC2"
		},
		{
			"bufferView":17,
			"componentType":5126,
			"count":255,
			"type":"VEC2"
		},
		{
			"bufferView":18,
			"componentType":5126,
			"count":255,
			"type":"VEC2"
		},
		{
			"bufferView":19,
			"componentType":5126,
			"count":255,
			"type":"VEC2"
		},
		{
			"bufferView":20,
			"componentType":5126,
			"count":255,
			"type":"VEC2"
		},
		{
			"bufferView":21,
			"componentType":5123,
			"count":1344,
			"type":"SCALAR"
		},
		{
			"bufferView":22,
			"componentType":5126,
			"count":7446,
			"max":[
				503.90582275390625,
				1246.306884765625,
				157.4802703857422
			],
			"min":[
				-167.84951782226562,
				588.0418090820312,
				-493.53662109375
			],
			"type":"VEC3"
		},
		{
			"bufferView":23,
			"componentType":5126,
			"count":7446,
			"type":"VEC3"
		},
		{
			"bufferView":24,
			"componentType":5126,
			"count":7446,
			"type":"VEC2"
		},
		{
			"bufferView":25,
			"componentType":5126,
			"count":7446,
			"type":"VEC2"
		},
		{
			"bufferView":26,
			"componentType":5126,
			"count":7446,
			"type":"VEC2"
		},
		{
			"bufferView":27,
			"componentType":5126,
			"count":7446,
			"type":"VEC2"
		},
		{
			"bufferView":28,
			"componentType":5126,
			"count":7446,
			"type":"VEC2"
		},
		{
			"bufferView":29,
			"componentType":5126,
			"count":7446,
			"type":"VEC2"
		},
		{
			"bufferView":30,
			"componentType":5126,
			"count":7446,
			"type":"VEC2"
		},
		{
			"bufferView":31,
			"componentType":5126,
			"count":7446,
			"type":"VEC2"
		},
		{
			"bufferView":32,
			"componentType":5123,
			"count":32832,
			"type":"SCALAR"
		}
	],
	"bufferViews":[
		{
			"buffer":0,
			"byteLength":270864,
			"byteOffset":0,
			"target":34962
		},
		{
			"buffer":0,
			"byteLength":270864,
			"byteOffset":270864,
			"target":34962
		},
		{
			"buffer":0,
			"byteLength":180576,
			"byteOffset":541728,
			"target":34962
		},
		{
			"buffer":0,
			"byteLength":180576,
			"byteOffset":722304,
			"target":34962
		},
		{
			"buffer":0,
			"byteLength":180576,
			"byteOffset":902880,
			"target":34962
		},
		{
			"buffer":0,
			"byteLength":180576,
			"byteOffset":1083456,
			"target":34962
		},
		{
			"buffer":0,
			"byteLength":180576,
			"byteOffset":1264032,
			"target":34962
		},
		{
			"buffer":0,
			"byteLength":180576,
			"byteOffset":1444608,
			"target":34962
		},
		{
			"buffer":0,
			"byteLength":180576,
			"byteOffset":1625184,
			"target":34962
		},
		{
			"buffer":0,
			"byteLength":180576,
			"byteOffset":1805760,
			"target":34962
		},
		{
			"buffer":0,
			"byteLength":60996,
			"byteOffset":1986336,
			"target":34963
		},
		{
			"buffer":0,
			"byteLength":3060,
			"byteOffset":2047332,
			"target":34962
		},
		{
			"buffer":0,
			"byteLength":3060,
			"byteOffset":2050392,
			"target":34962
		},
		{
			"buffer":0,
			"byteLength":2040,
			"byteOffset":2053452,
			"target":34962
		},
		{
			"buffer":0,
			"byteLength":2040,
			"byteOffset":2055492,
			"target":34962
		},
		{
			"buffer":0,
			"byteLength":2040,
			"byteOffset":2057532,
			"target":34962
		},
		{
			"buffer":0,
			"byteLength":2040,
			"byteOffset":2059572,
			"target":34962
		},
		{
			"buffer":0,
			"byteLength":2040,
			"byteOffset":2061612,
			"target":34962
		},
		{
			"buffer":0,
			"byteLength":2040,
			"byteOffset":2063652,
			"target":34962
		},
		{
			"buffer":0,
			"byteLength":2040,
			"byteOffset":2065692,
			"target":34962
		},
		{
			"buffer":0,
			"byteLength":2040,
			"byteOffset":2067732,
			"target":34962
		},
		{
			"buffer":0,
			"byteLength":2688,
			"byteOffset":2069772,
			"target":34963
		},
		{
			"buffer":0,
			"byteLength":89352,
			"byteOffset":2072460,
			"target":34962
		},
		{
			"buffer":0,
			"byteLength":89352,
			"byteOffset":2161812,
			"target":34962
		},
		{
			"buffer":0,
			"byteLength":59568,
			"byteOffset":2251164,
			"target":34962
		},
		{
			"buffer":0,
			"byteLength":59568,
			"byteOffset":2310732,
			"target":34962
		},
		{
			"buffer":0,
			"byteLength":59568,
			"byteOffset":2370300,
			"target":34962
		},
		{
			"buffer":0,
			"byteLength":59568,
			"byteOffset":2429868,
			"target":34962
		},
		{
			"buffer":0,
			"byteLength":59568,
			"byteOffset":2489436,
			"target":34962
		},
		{
			"buffer":0,
			"byteLength":59568,
			"byteOffset":2549004,
			"target":34962
		},
		{
			"buffer":0,
			"byteLength":59568,
			"byteOffset":2608572,
			"target":34962
		},
		{
			"buffer":0,
			"byteLength":59568,
			"byteOffset":2668140,
			"target":34962
		},
		{
			"buffer":0,
			"byteLength":65664,
			"byteOffset":2727708,
			"target":34963
		}
	],
	"samplers":[
		{
			"magFilter":9729,
			"minFilter":9987
		}
	],
	"buffers":[
		{
			"byteLength":2793372,
			"uri":"TablePlant.bin"
		}
	]
}
