{
	"asset":{
		"generator":"Khronos glTF Blender I/O v4.1.62",
		"version":"2.0"
	},
	"scene":0,
	"scenes":[
		{
			"name":"Scene",
			"nodes":[
				12
			]
		}
	],
	"nodes":[
		{
			"mesh":0,
			"name":"Object_10",
			"translation":[
				0,
				7.461724180757301e-06,
				0
			]
		},
		{
			"mesh":1,
			"name":"Object_11",
			"translation":[
				0,
				7.461724180757301e-06,
				0
			]
		},
		{
			"mesh":2,
			"name":"Object_12.002",
			"translation":[
				0,
				7.461724180757301e-06,
				0
			]
		},
		{
			"mesh":3,
			"name":"Object_4",
			"scale":[
				0.9288808107376099,
				0.9288806915283203,
				1.0925029516220093
			],
			"translation":[
				0,
				7.461724180757301e-06,
				0
			]
		},
		{
			"mesh":4,
			"name":"Object_5",
			"scale":[
				0.9288808107376099,
				0.9288806915283203,
				1.0925029516220093
			],
			"translation":[
				0,
				7.461724180757301e-06,
				0
			]
		},
		{
			"mesh":5,
			"name":"Object_6",
			"scale":[
				0.9288808107376099,
				0.9288806915283203,
				1.0925029516220093
			],
			"translation":[
				0,
				7.461724180757301e-06,
				0
			]
		},
		{
			"mesh":6,
			"name":"Object_7",
			"translation":[
				0,
				7.461724180757301e-06,
				0
			]
		},
		{
			"mesh":7,
			"name":"Object_8",
			"translation":[
				0,
				7.461724180757301e-06,
				0
			]
		},
		{
			"mesh":8,
			"name":"Object_9",
			"translation":[
				0,
				7.461724180757301e-06,
				0
			]
		},
		{
			"children":[
				0,
				1,
				2,
				3,
				4,
				5,
				6,
				7,
				8
			],
			"name":"Plant house Mano de leon N251220_0",
			"rotation":[
				0.70710688829422,
				0,
				0,
				0.7071066498756409
			],
			"translation":[
				-2.8017232125421287e-06,
				0,
				0
			]
		},
		{
			"children":[
				9
			],
			"name":"GLTF_SceneRootNode.001",
			"rotation":[
				0.70710688829422,
				0,
				0,
				0.7071066498756409
			]
		},
		{
			"children":[
				10
			],
			"name":"root.001"
		},
		{
			"children":[
				11
			],
			"name":"Sketchfab_model.002",
			"rotation":[
				-0.13443738222122192,
				0.6942093372344971,
				0.6942093372344971,
				0.13443738222122192
			],
			"scale":[
				0.8571838736534119,
				0.8571836352348328,
				0.8571836352348328
			],
			"translation":[
				5.955368995666504,
				-4.9905195236206055,
				48.063819885253906
			]
		}
	],
	"materials":[
		{
			"doubleSided":true,
			"name":"black_st",
			"pbrMetallicRoughness":{
				"baseColorTexture":{
					"index":0
				},
				"metallicFactor":0,
				"roughnessFactor":0.6000000238418579
			}
		},
		{
			"doubleSided":true,
			"name":"st_red",
			"pbrMetallicRoughness":{
				"baseColorTexture":{
					"index":1
				},
				"metallicFactor":0,
				"roughnessFactor":0.6000000238418579
			}
		},
		{
			"doubleSided":true,
			"name":"st_leather",
			"pbrMetallicRoughness":{
				"baseColorTexture":{
					"index":2
				},
				"metallicFactor":0,
				"roughnessFactor":0.6000000238418579
			}
		},
		{
			"doubleSided":true,
			"name":"broun",
			"pbrMetallicRoughness":{
				"baseColorTexture":{
					"index":3
				},
				"metallicFactor":0,
				"roughnessFactor":0.6000000238418579
			}
		},
		{
			"doubleSided":true,
			"name":"green",
			"pbrMetallicRoughness":{
				"baseColorTexture":{
					"index":4
				},
				"metallicFactor":0,
				"roughnessFactor":0.6000000238418579
			}
		}
	],
	"meshes":[
		{
			"name":"Object_6",
			"primitives":[
				{
					"attributes":{
						"POSITION":0,
						"NORMAL":1,
						"TEXCOORD_0":2
					},
					"indices":3,
					"material":0
				}
			]
		},
		{
			"name":"Object_7",
			"primitives":[
				{
					"attributes":{
						"POSITION":4,
						"NORMAL":5,
						"TEXCOORD_0":6
					},
					"indices":7,
					"material":1
				}
			]
		},
		{
			"name":"Object_8",
			"primitives":[
				{
					"attributes":{
						"POSITION":8,
						"NORMAL":9,
						"TEXCOORD_0":10
					},
					"indices":11,
					"material":2
				}
			]
		},
		{
			"name":"Object_0",
			"primitives":[
				{
					"attributes":{
						"POSITION":12,
						"NORMAL":13,
						"TEXCOORD_0":14
					},
					"indices":15,
					"material":3
				}
			]
		},
		{
			"name":"Object_1",
			"primitives":[
				{
					"attributes":{
						"POSITION":16,
						"NORMAL":17,
						"TEXCOORD_0":18
					},
					"indices":19,
					"material":4
				}
			]
		},
		{
			"name":"Object_2",
			"primitives":[
				{
					"attributes":{
						"POSITION":20,
						"NORMAL":21,
						"TEXCOORD_0":22
					},
					"indices":23,
					"material":4
				}
			]
		},
		{
			"name":"Object_3",
			"primitives":[
				{
					"attributes":{
						"POSITION":24,
						"NORMAL":25,
						"TEXCOORD_0":26
					},
					"indices":27,
					"material":0
				}
			]
		},
		{
			"name":"Object_4.002",
			"primitives":[
				{
					"attributes":{
						"POSITION":28,
						"NORMAL":29,
						"TEXCOORD_0":30
					},
					"indices":31,
					"material":0
				}
			]
		},
		{
			"name":"Object_5",
			"primitives":[
				{
					"attributes":{
						"POSITION":32,
						"NORMAL":33,
						"TEXCOORD_0":34
					},
					"indices":35,
					"material":0
				}
			]
		}
	],
	"textures":[
		{
			"sampler":0,
			"source":0
		},
		{
			"sampler":0,
			"source":1
		},
		{
			"sampler":0,
			"source":2
		},
		{
			"sampler":0,
			"source":3
		},
		{
			"sampler":0,
			"source":4
		}
	],
	"images":[
		{
			"mimeType":"image/jpeg",
			"name":"Image_2",
			"uri":"Image_2.jpg"
		},
		{
			"mimeType":"image/jpeg",
			"name":"Image_3",
			"uri":"Image_3.jpg"
		},
		{
			"mimeType":"image/png",
			"name":"Image_4",
			"uri":"Image_4.png"
		},
		{
			"mimeType":"image/png",
			"name":"Image_0",
			"uri":"Image_0.png"
		},
		{
			"mimeType":"image/jpeg",
			"name":"Image_1",
			"uri":"Image_1.jpg"
		}
	],
	"accessors":[
		{
			"bufferView":0,
			"componentType":5126,
			"count":5574,
			"max":[
				0.41929998993873596,
				0.7483999729156494,
				0
			],
			"min":[
				0.14470000565052032,
				0.5324000120162964,
				-1.3142000436782837
			],
			"type":"VEC3"
		},
		{
			"bufferView":1,
			"componentType":5126,
			"count":5574,
			"type":"VEC3"
		},
		{
			"bufferView":2,
			"componentType":5126,
			"count":5574,
			"type":"VEC2"
		},
		{
			"bufferView":3,
			"componentType":5123,
			"count":7953,
			"type":"SCALAR"
		},
		{
			"bufferView":4,
			"componentType":5126,
			"count":130,
			"max":[
				0.6166999936103821,
				0.8291000127792358,
				-0.003700000001117587
			],
			"min":[
				-1.1270999908447266,
				-0.9146999716758728,
				-1.2375999689102173
			],
			"type":"VEC3"
		},
		{
			"bufferView":5,
			"componentType":5126,
			"count":130,
			"type":"VEC3"
		},
		{
			"bufferView":6,
			"componentType":5126,
			"count":130,
			"type":"VEC2"
		},
		{
			"bufferView":7,
			"componentType":5123,
			"count":372,
			"type":"SCALAR"
		},
		{
			"bufferView":8,
			"componentType":5126,
			"count":3265,
			"max":[
				0.6198999881744385,
				0.8323000073432922,
				-1.2229000329971313
			],
			"min":[
				-1.1303000450134277,
				-0.9178000092506409,
				-1.3030999898910522
			],
			"type":"VEC3"
		},
		{
			"bufferView":9,
			"componentType":5126,
			"count":3265,
			"type":"VEC3"
		},
		{
			"bufferView":10,
			"componentType":5126,
			"count":3265,
			"type":"VEC2"
		},
		{
			"bufferView":11,
			"componentType":5123,
			"count":19200,
			"type":"SCALAR"
		},
		{
			"bufferView":12,
			"componentType":5126,
			"count":37740,
			"max":[
				0.397599995136261,
				0.65420001745224,
				-1.0336999893188477
			],
			"min":[
				-0.7634999752044678,
				-0.675599992275238,
				-6.295300006866455
			],
			"type":"VEC3"
		},
		{
			"bufferView":13,
			"componentType":5126,
			"count":37740,
			"type":"VEC3"
		},
		{
			"bufferView":14,
			"componentType":5126,
			"count":37740,
			"type":"VEC2"
		},
		{
			"bufferView":15,
			"componentType":5123,
			"count":208320,
			"type":"SCALAR"
		},
		{
			"bufferView":16,
			"componentType":5126,
			"count":65533,
			"max":[
				2.291599988937378,
				2.3232998847961426,
				-0.6577000021934509
			],
			"min":[
				-2.530600070953369,
				-2.801100015640259,
				-8.172900199890137
			],
			"type":"VEC3"
		},
		{
			"bufferView":17,
			"componentType":5126,
			"count":65533,
			"type":"VEC3"
		},
		{
			"bufferView":18,
			"componentType":5126,
			"count":65533,
			"type":"VEC2"
		},
		{
			"bufferView":19,
			"componentType":5123,
			"count":355668,
			"type":"SCALAR"
		},
		{
			"bufferView":20,
			"componentType":5126,
			"count":35326,
			"max":[
				2.530600070953369,
				2.801100015640259,
				-1.989400029182434
			],
			"min":[
				-2.530600070953369,
				-2.392199993133545,
				-6.385900020599365
			],
			"type":"VEC3"
		},
		{
			"bufferView":21,
			"componentType":5126,
			"count":35326,
			"type":"VEC3"
		},
		{
			"bufferView":22,
			"componentType":5126,
			"count":35326,
			"type":"VEC2"
		},
		{
			"bufferView":23,
			"componentType":5123,
			"count":190032,
			"type":"SCALAR"
		},
		{
			"bufferView":24,
			"componentType":5126,
			"count":68462,
			"max":[
				0.6312999725341797,
				0.8436999917030334,
				0
			],
			"min":[
				-1.1416000127792358,
				-0.9291999936103821,
				-1.3142000436782837
			],
			"type":"VEC3"
		},
		{
			"bufferView":25,
			"componentType":5126,
			"count":68462,
			"type":"VEC3"
		},
		{
			"bufferView":26,
			"componentType":5126,
			"count":68462,
			"type":"VEC2"
		},
		{
			"bufferView":27,
			"componentType":5125,
			"count":101079,
			"type":"SCALAR"
		},
		{
			"bufferView":28,
			"componentType":5126,
			"count":68791,
			"max":[
				0.5848000049591064,
				0.6583999991416931,
				0
			],
			"min":[
				-1.141700029373169,
				-0.9291999936103821,
				-1.3142000436782837
			],
			"type":"VEC3"
		},
		{
			"bufferView":29,
			"componentType":5126,
			"count":68791,
			"type":"VEC3"
		},
		{
			"bufferView":30,
			"componentType":5126,
			"count":68791,
			"type":"VEC2"
		},
		{
			"bufferView":31,
			"componentType":5125,
			"count":99882,
			"type":"SCALAR"
		},
		{
			"bufferView":32,
			"componentType":5126,
			"count":68530,
			"max":[
				0.29829999804496765,
				0.8436999917030334,
				0
			],
			"min":[
				-1.0951999425888062,
				-0.7922999858856201,
				-1.3142000436782837
			],
			"type":"VEC3"
		},
		{
			"bufferView":33,
			"componentType":5126,
			"count":68530,
			"type":"VEC3"
		},
		{
			"bufferView":34,
			"componentType":5126,
			"count":68530,
			"type":"VEC2"
		},
		{
			"bufferView":35,
			"componentType":5125,
			"count":99966,
			"type":"SCALAR"
		}
	],
	"bufferViews":[
		{
			"buffer":0,
			"byteLength":66888,
			"byteOffset":0,
			"target":34962
		},
		{
			"buffer":0,
			"byteLength":66888,
			"byteOffset":66888,
			"target":34962
		},
		{
			"buffer":0,
			"byteLength":44592,
			"byteOffset":133776,
			"target":34962
		},
		{
			"buffer":0,
			"byteLength":15906,
			"byteOffset":178368,
			"target":34963
		},
		{
			"buffer":0,
			"byteLength":1560,
			"byteOffset":194276,
			"target":34962
		},
		{
			"buffer":0,
			"byteLength":1560,
			"byteOffset":195836,
			"target":34962
		},
		{
			"buffer":0,
			"byteLength":1040,
			"byteOffset":197396,
			"target":34962
		},
		{
			"buffer":0,
			"byteLength":744,
			"byteOffset":198436,
			"target":34963
		},
		{
			"buffer":0,
			"byteLength":39180,
			"byteOffset":199180,
			"target":34962
		},
		{
			"buffer":0,
			"byteLength":39180,
			"byteOffset":238360,
			"target":34962
		},
		{
			"buffer":0,
			"byteLength":26120,
			"byteOffset":277540,
			"target":34962
		},
		{
			"buffer":0,
			"byteLength":38400,
			"byteOffset":303660,
			"target":34963
		},
		{
			"buffer":0,
			"byteLength":452880,
			"byteOffset":342060,
			"target":34962
		},
		{
			"buffer":0,
			"byteLength":452880,
			"byteOffset":794940,
			"target":34962
		},
		{
			"buffer":0,
			"byteLength":301920,
			"byteOffset":1247820,
			"target":34962
		},
		{
			"buffer":0,
			"byteLength":416640,
			"byteOffset":1549740,
			"target":34963
		},
		{
			"buffer":0,
			"byteLength":786396,
			"byteOffset":1966380,
			"target":34962
		},
		{
			"buffer":0,
			"byteLength":786396,
			"byteOffset":2752776,
			"target":34962
		},
		{
			"buffer":0,
			"byteLength":524264,
			"byteOffset":3539172,
			"target":34962
		},
		{
			"buffer":0,
			"byteLength":711336,
			"byteOffset":4063436,
			"target":34963
		},
		{
			"buffer":0,
			"byteLength":423912,
			"byteOffset":4774772,
			"target":34962
		},
		{
			"buffer":0,
			"byteLength":423912,
			"byteOffset":5198684,
			"target":34962
		},
		{
			"buffer":0,
			"byteLength":282608,
			"byteOffset":5622596,
			"target":34962
		},
		{
			"buffer":0,
			"byteLength":380064,
			"byteOffset":5905204,
			"target":34963
		},
		{
			"buffer":0,
			"byteLength":821544,
			"byteOffset":6285268,
			"target":34962
		},
		{
			"buffer":0,
			"byteLength":821544,
			"byteOffset":7106812,
			"target":34962
		},
		{
			"buffer":0,
			"byteLength":547696,
			"byteOffset":7928356,
			"target":34962
		},
		{
			"buffer":0,
			"byteLength":404316,
			"byteOffset":8476052,
			"target":34963
		},
		{
			"buffer":0,
			"byteLength":825492,
			"byteOffset":8880368,
			"target":34962
		},
		{
			"buffer":0,
			"byteLength":825492,
			"byteOffset":9705860,
			"target":34962
		},
		{
			"buffer":0,
			"byteLength":550328,
			"byteOffset":10531352,
			"target":34962
		},
		{
			"buffer":0,
			"byteLength":399528,
			"byteOffset":11081680,
			"target":34963
		},
		{
			"buffer":0,
			"byteLength":822360,
			"byteOffset":11481208,
			"target":34962
		},
		{
			"buffer":0,
			"byteLength":822360,
			"byteOffset":12303568,
			"target":34962
		},
		{
			"buffer":0,
			"byteLength":548240,
			"byteOffset":13125928,
			"target":34962
		},
		{
			"buffer":0,
			"byteLength":399864,
			"byteOffset":13674168,
			"target":34963
		}
	],
	"samplers":[
		{
			"magFilter":9729,
			"minFilter":9987
		}
	],
	"buffers":[
		{
			"byteLength":14074032,
			"uri":"Plant2.bin"
		}
	]
}
