{
	"asset":{
		"generator":"Khronos glTF Blender I/O v4.1.62",
		"version":"2.0"
	},
	"scene":0,
	"scenes":[
		{
			"name":"Scene",
			"nodes":[
				0,
				1,
				2,
				3
			]
		}
	],
	"nodes":[
		{
			"mesh":0,
			"name":"Pillow_02",
			"rotation":[
				0,
				-0.3697589933872223,
				0,
				0.9291278123855591
			],
			"scale":[
				2.281099557876587,
				2.281099796295166,
				2.281099557876587
			],
			"translation":[
				3.8108088970184326,
				-4.92799711227417,
				25.264503479003906
			]
		},
		{
			"mesh":1,
			"name":"Pillow_01",
			"rotation":[
				0,
				-0.3697589933872223,
				0,
				0.9291278123855591
			],
			"scale":[
				2.281099557876587,
				2.281099796295166,
				2.281099557876587
			],
			"translation":[
				3.8108088970184326,
				-4.92799711227417,
				25.264503479003906
			]
		},
		{
			"mesh":2,
			"name":"iron",
			"rotation":[
				0,
				-0.3697589933872223,
				0,
				0.9291278123855591
			],
			"scale":[
				2.281099557876587,
				2.281099796295166,
				2.281099557876587
			],
			"translation":[
				3.8108088970184326,
				-4.92799711227417,
				25.264503479003906
			]
		},
		{
			"mesh":3,
			"name":"Chair",
			"rotation":[
				0,
				-0.3697589933872223,
				0,
				0.9291278123855591
			],
			"scale":[
				2.281099557876587,
				2.281099796295166,
				2.281099557876587
			],
			"translation":[
				3.8108088970184326,
				-4.92799711227417,
				25.264503479003906
			]
		}
	],
	"materials":[
		{
			"doubleSided":true,
			"name":"Pillow_02",
			"pbrMetallicRoughness":{
				"baseColorTexture":{
					"index":0
				},
				"metallicFactor":0,
				"metallicRoughnessTexture":{
					"index":1
				}
			}
		},
		{
			"doubleSided":true,
			"name":"Pillow_01",
			"pbrMetallicRoughness":{
				"baseColorTexture":{
					"index":2
				},
				"metallicFactor":0,
				"metallicRoughnessTexture":{
					"index":3
				}
			}
		},
		{
			"doubleSided":true,
			"name":"Chair",
			"normalTexture":{
				"index":4
			},
			"pbrMetallicRoughness":{
				"baseColorFactor":[
					0.9302195310592651,
					0.9302195310592651,
					0.9302195310592651,
					1
				],
				"metallicRoughnessTexture":{
					"index":5
				}
			}
		}
	],
	"meshes":[
		{
			"name":"Plane.001",
			"primitives":[
				{
					"attributes":{
						"POSITION":0,
						"NORMAL":1,
						"TEXCOORD_0":2,
						"TEXCOORD_1":3
					},
					"indices":4,
					"material":0
				}
			]
		},
		{
			"name":"Plane.002",
			"primitives":[
				{
					"attributes":{
						"POSITION":5,
						"NORMAL":6,
						"TEXCOORD_0":7,
						"TEXCOORD_1":8
					},
					"indices":4,
					"material":1
				}
			]
		},
		{
			"name":"BezierCircle",
			"primitives":[
				{
					"attributes":{
						"POSITION":9,
						"NORMAL":10,
						"TEXCOORD_0":11
					},
					"indices":12,
					"material":2
				}
			]
		},
		{
			"name":"Circle.001",
			"primitives":[
				{
					"attributes":{
						"POSITION":13,
						"NORMAL":14,
						"TEXCOORD_0":15
					},
					"indices":16,
					"material":2
				}
			]
		}
	],
	"textures":[
		{
			"sampler":0,
			"source":0
		},
		{
			"sampler":0,
			"source":1
		},
		{
			"sampler":0,
			"source":2
		},
		{
			"sampler":0,
			"source":3
		},
		{
			"sampler":0,
			"source":4
		},
		{
			"sampler":0,
			"source":5
		}
	],
	"images":[
		{
			"mimeType":"image/jpeg",
			"name":"Pillow_02_Base_Color",
			"uri":"Pillow_02_Base_Color.jpg"
		},
		{
			"mimeType":"image/png",
			"name":"Pillow_02_Roughness",
			"uri":"Pillow_02_Roughness.png"
		},
		{
			"mimeType":"image/jpeg",
			"name":"Pillow_01_Base_Color",
			"uri":"Pillow_01_Base_Color.jpg"
		},
		{
			"mimeType":"image/png",
			"name":"Pillow_01_Roughness",
			"uri":"Pillow_01_Roughness.png"
		},
		{
			"mimeType":"image/png",
			"name":"Chair_Normal",
			"uri":"Chair_Normal.png"
		},
		{
			"mimeType":"image/png",
			"name":"Chair_Metallic-Chair_Roughness",
			"uri":"Chair_Metallic-Chair_Roughness.png"
		}
	],
	"accessors":[
		{
			"bufferView":0,
			"componentType":5126,
			"count":8450,
			"max":[
				0.16655440628528595,
				0.8579779863357544,
				0.24428534507751465
			],
			"min":[
				-0.33044618368148804,
				0.4398411512374878,
				-0.24381940066814423
			],
			"type":"VEC3"
		},
		{
			"bufferView":1,
			"componentType":5126,
			"count":8450,
			"type":"VEC3"
		},
		{
			"bufferView":2,
			"componentType":5126,
			"count":8450,
			"type":"VEC2"
		},
		{
			"bufferView":3,
			"componentType":5126,
			"count":8450,
			"type":"VEC2"
		},
		{
			"bufferView":4,
			"componentType":5123,
			"count":49152,
			"type":"SCALAR"
		},
		{
			"bufferView":5,
			"componentType":5126,
			"count":8450,
			"max":[
				0.5971858501434326,
				1.0162289142608643,
				0.22428244352340698
			],
			"min":[
				-0.1937093734741211,
				0.41345736384391785,
				-0.5958085060119629
			],
			"type":"VEC3"
		},
		{
			"bufferView":6,
			"componentType":5126,
			"count":8450,
			"type":"VEC3"
		},
		{
			"bufferView":7,
			"componentType":5126,
			"count":8450,
			"type":"VEC2"
		},
		{
			"bufferView":8,
			"componentType":5126,
			"count":8450,
			"type":"VEC2"
		},
		{
			"bufferView":9,
			"componentType":5126,
			"count":2152,
			"max":[
				0.5984919667243958,
				0.8766347765922546,
				0.5984917283058167
			],
			"min":[
				-0.5984923243522644,
				6.795826834604668e-08,
				-0.5984925031661987
			],
			"type":"VEC3"
		},
		{
			"bufferView":10,
			"componentType":5126,
			"count":2152,
			"type":"VEC3"
		},
		{
			"bufferView":11,
			"componentType":5126,
			"count":2152,
			"type":"VEC2"
		},
		{
			"bufferView":12,
			"componentType":5123,
			"count":11232,
			"type":"SCALAR"
		},
		{
			"bufferView":13,
			"componentType":5126,
			"count":1946,
			"max":[
				0.5474417805671692,
				0.4503919184207916,
				0.5474416017532349
			],
			"min":[
				-0.5474420785903931,
				-0.002972380956634879,
				-0.5474423170089722
			],
			"type":"VEC3"
		},
		{
			"bufferView":14,
			"componentType":5126,
			"count":1946,
			"type":"VEC3"
		},
		{
			"bufferView":15,
			"componentType":5126,
			"count":1946,
			"type":"VEC2"
		},
		{
			"bufferView":16,
			"componentType":5123,
			"count":10752,
			"type":"SCALAR"
		}
	],
	"bufferViews":[
		{
			"buffer":0,
			"byteLength":101400,
			"byteOffset":0,
			"target":34962
		},
		{
			"buffer":0,
			"byteLength":101400,
			"byteOffset":101400,
			"target":34962
		},
		{
			"buffer":0,
			"byteLength":67600,
			"byteOffset":202800,
			"target":34962
		},
		{
			"buffer":0,
			"byteLength":67600,
			"byteOffset":270400,
			"target":34962
		},
		{
			"buffer":0,
			"byteLength":98304,
			"byteOffset":338000,
			"target":34963
		},
		{
			"buffer":0,
			"byteLength":101400,
			"byteOffset":436304,
			"target":34962
		},
		{
			"buffer":0,
			"byteLength":101400,
			"byteOffset":537704,
			"target":34962
		},
		{
			"buffer":0,
			"byteLength":67600,
			"byteOffset":639104,
			"target":34962
		},
		{
			"buffer":0,
			"byteLength":67600,
			"byteOffset":706704,
			"target":34962
		},
		{
			"buffer":0,
			"byteLength":25824,
			"byteOffset":774304,
			"target":34962
		},
		{
			"buffer":0,
			"byteLength":25824,
			"byteOffset":800128,
			"target":34962
		},
		{
			"buffer":0,
			"byteLength":17216,
			"byteOffset":825952,
			"target":34962
		},
		{
			"buffer":0,
			"byteLength":22464,
			"byteOffset":843168,
			"target":34963
		},
		{
			"buffer":0,
			"byteLength":23352,
			"byteOffset":865632,
			"target":34962
		},
		{
			"buffer":0,
			"byteLength":23352,
			"byteOffset":888984,
			"target":34962
		},
		{
			"buffer":0,
			"byteLength":15568,
			"byteOffset":912336,
			"target":34962
		},
		{
			"buffer":0,
			"byteLength":21504,
			"byteOffset":927904,
			"target":34963
		}
	],
	"samplers":[
		{
			"magFilter":9729,
			"minFilter":9987
		}
	],
	"buffers":[
		{
			"byteLength":949408,
			"uri":"ArmChair.bin"
		}
	]
}
