{
	"asset":{
		"generator":"Khronos glTF Blender I/O v4.1.62",
		"version":"2.0"
	},
	"scene":0,
	"scenes":[
		{
			"name":"Scene",
			"nodes":[
				6
			]
		}
	],
	"nodes":[
		{
			"name":"model",
			"rotation":[
				0.008490657433867455,
				0.001493495306931436,
				-0.7071052193641663,
				0.7070558071136475
			],
			"scale":[
				1000.0000610351562,
				1000,
				999.9998779296875
			],
			"translation":[
				10.474693298339844,
				-8.085770606994629,
				-56.98846435546875
			]
		},
		{
			"mesh":0,
			"name":"Rug Bottom_Rug Bottom_0"
		},
		{
			"children":[
				1
			],
			"name":"Rug Bottom",
			"rotation":[
				0.008490657433867455,
				0.001493495306931436,
				-0.7071052193641663,
				0.7070558071136475
			],
			"scale":[
				1000.0000610351562,
				1000,
				999.9998779296875
			],
			"translation":[
				10.474693298339844,
				-8.085765838623047,
				-73.568359375
			]
		},
		{
			"children":[
				0,
				2
			],
			"name":"RUG",
			"rotation":[
				-0.70710688829422,
				0,
				0,
				0.7071066498756409
			],
			"translation":[
				-10.474700927734375,
				56.98849868774414,
				-8.085528373718262
			]
		},
		{
			"children":[
				3
			],
			"name":"RootNode",
			"translation":[
				0,
				3.459924482740462e-05,
				0.00040093931602314115
			]
		},
		{
			"children":[
				4
			],
			"name":"Descanso White Rug v4.fbx",
			"rotation":[
				0.70710688829422,
				0,
				0,
				0.7071066498756409
			],
			"scale":[
				0.0010000001639127731,
				0.001000000280328095,
				0.0010000001639127731
			]
		},
		{
			"children":[
				5
			],
			"name":"Rug",
			"rotation":[
				-0.70710688829422,
				0,
				0,
				0.7071066498756409
			],
			"scale":[
				6.744859218597412,
				4.338728427886963,
				9.08269214630127
			],
			"translation":[
				0.7278734445571899,
				-5.399980545043945,
				24.7803955078125
			]
		}
	],
	"materials":[
		{
			"doubleSided":true,
			"name":"Rug_Bottom",
			"pbrMetallicRoughness":{
				"baseColorTexture":{
					"index":0
				},
				"metallicFactor":0,
				"roughnessFactor":0.8929713368415833
			}
		},
		{
			"doubleSided":true,
			"name":"tex_u1_v1",
			"pbrMetallicRoughness":{
				"baseColorTexture":{
					"index":1
				},
				"metallicFactor":0,
				"roughnessFactor":0.8929713368415833
			}
		}
	],
	"meshes":[
		{
			"name":"Rug Bottom_Rug Bottom_0",
			"primitives":[
				{
					"attributes":{
						"POSITION":0,
						"NORMAL":1,
						"TEXCOORD_0":2,
						"TEXCOORD_1":3
					},
					"indices":4,
					"material":0
				},
				{
					"attributes":{
						"POSITION":5,
						"NORMAL":6,
						"TEXCOORD_0":7,
						"TEXCOORD_1":8
					},
					"indices":9,
					"material":1
				}
			]
		}
	],
	"textures":[
		{
			"sampler":0,
			"source":0
		},
		{
			"sampler":0,
			"source":1
		}
	],
	"images":[
		{
			"mimeType":"image/jpeg",
			"name":"Image_0",
			"uri":"Image_0.jpg"
		},
		{
			"mimeType":"image/jpeg",
			"name":"Image_1",
			"uri":"Image_1.jpg"
		}
	],
	"accessors":[
		{
			"bufferView":0,
			"componentType":5126,
			"count":10383,
			"max":[
				1.1259229183197021,
				0.7822161316871643,
				0.08749958872795105
			],
			"min":[
				-1.143899917602539,
				-0.8017796874046326,
				0.04031774029135704
			],
			"type":"VEC3"
		},
		{
			"bufferView":1,
			"componentType":5126,
			"count":10383,
			"type":"VEC3"
		},
		{
			"bufferView":2,
			"componentType":5126,
			"count":10383,
			"type":"VEC2"
		},
		{
			"bufferView":3,
			"componentType":5126,
			"count":10383,
			"type":"VEC2"
		},
		{
			"bufferView":4,
			"componentType":5123,
			"count":10383,
			"type":"SCALAR"
		},
		{
			"bufferView":5,
			"componentType":5126,
			"count":268545,
			"max":[
				1.1259247064590454,
				0.7822118401527405,
				0.101933054625988
			],
			"min":[
				-1.143899917602539,
				-0.8017796874046326,
				0.04039687663316727
			],
			"type":"VEC3"
		},
		{
			"bufferView":6,
			"componentType":5126,
			"count":268545,
			"type":"VEC3"
		},
		{
			"bufferView":7,
			"componentType":5126,
			"count":268545,
			"type":"VEC2"
		},
		{
			"bufferView":8,
			"componentType":5126,
			"count":268545,
			"type":"VEC2"
		},
		{
			"bufferView":9,
			"componentType":5125,
			"count":270855,
			"type":"SCALAR"
		}
	],
	"bufferViews":[
		{
			"buffer":0,
			"byteLength":124596,
			"byteOffset":0,
			"target":34962
		},
		{
			"buffer":0,
			"byteLength":124596,
			"byteOffset":124596,
			"target":34962
		},
		{
			"buffer":0,
			"byteLength":83064,
			"byteOffset":249192,
			"target":34962
		},
		{
			"buffer":0,
			"byteLength":83064,
			"byteOffset":332256,
			"target":34962
		},
		{
			"buffer":0,
			"byteLength":20766,
			"byteOffset":415320,
			"target":34963
		},
		{
			"buffer":0,
			"byteLength":3222540,
			"byteOffset":436088,
			"target":34962
		},
		{
			"buffer":0,
			"byteLength":3222540,
			"byteOffset":3658628,
			"target":34962
		},
		{
			"buffer":0,
			"byteLength":2148360,
			"byteOffset":6881168,
			"target":34962
		},
		{
			"buffer":0,
			"byteLength":2148360,
			"byteOffset":9029528,
			"target":34962
		},
		{
			"buffer":0,
			"byteLength":1083420,
			"byteOffset":11177888,
			"target":34963
		}
	],
	"samplers":[
		{
			"magFilter":9729,
			"minFilter":9987
		}
	],
	"buffers":[
		{
			"byteLength":12261308,
			"uri":"RugFull.bin"
		}
	]
}
