{
	"asset":{
		"generator":"Khronos glTF Blender I/O v4.1.62",
		"version":"2.0"
	},
	"scene":0,
	"scenes":[
		{
			"name":"Scene",
			"nodes":[
				9
			]
		}
	],
	"nodes":[
		{
			"mesh":0,
			"name":"Weed Plant Medium_b_Cannabis Leaf_0",
			"scale":[
				1,
				1,
				1.4991620779037476
			],
			"translation":[
				0,
				0,
				-0.23173874616622925
			]
		},
		{
			"mesh":1,
			"name":"Weed Plant Medium_b_Fresh Bud_0"
		},
		{
			"mesh":2,
			"name":"Weed Plant Medium_b_Gravel_0"
		},
		{
			"mesh":3,
			"name":"Weed Plant Medium_b_Metal_0"
		},
		{
			"mesh":4,
			"name":"Weed Plant Medium_b_Plastic_0"
		},
		{
			"mesh":5,
			"name":"Weed Plant Medium_b_Tag_0"
		},
		{
			"children":[
				0,
				1,
				2,
				3,
				4,
				5
			],
			"name":"Weed Plant Medium_b",
			"rotation":[
				0,
				-0.7071068286895752,
				-0.7071068286895752,
				1.3767879636361613e-07
			],
			"scale":[
				100.00001525878906,
				100.00001525878906,
				100.00001525878906
			],
			"translation":[
				1.52587890625e-05,
				1.525879997643642e-05,
				6.103515625e-05
			]
		},
		{
			"children":[
				6
			],
			"name":"RootNode.002",
			"translation":[
				1.52587890625e-05,
				1.525879997643642e-05,
				6.103515625e-05
			]
		},
		{
			"children":[
				7
			],
			"name":"Weed Plant Medium_b.fbx",
			"rotation":[
				0.70710688829422,
				0,
				0,
				0.7071066498756409
			],
			"scale":[
				0.010000000707805157,
				0.010000000707805157,
				0.010000000707805157
			]
		},
		{
			"children":[
				8
			],
			"name":"Sketchfab_model.001",
			"rotation":[
				-0.7071069478988647,
				0,
				0,
				0.7071066498756409
			],
			"scale":[
				3.318582773208618,
				3.3185832500457764,
				3.3185832500457764
			],
			"translation":[
				-6.334341049194336,
				-4.953853607177734,
				28.08871078491211
			]
		}
	],
	"materials":[
		{
			"alphaMode":"BLEND",
			"doubleSided":true,
			"name":"Cannabis_Leaf",
			"pbrMetallicRoughness":{
				"baseColorTexture":{
					"index":0
				},
				"metallicFactor":0,
				"roughnessFactor":0.8211145401000977
			}
		},
		{
			"doubleSided":true,
			"name":"Fresh_Bud",
			"pbrMetallicRoughness":{
				"baseColorTexture":{
					"index":1
				},
				"metallicFactor":0,
				"roughnessFactor":0.8211145401000977
			}
		},
		{
			"doubleSided":true,
			"name":"Gravel",
			"normalTexture":{
				"index":2
			},
			"pbrMetallicRoughness":{
				"baseColorTexture":{
					"index":3
				},
				"metallicFactor":0,
				"roughnessFactor":0.8211145401000977
			}
		},
		{
			"doubleSided":true,
			"name":"Metal",
			"pbrMetallicRoughness":{
				"baseColorTexture":{
					"index":4
				},
				"metallicRoughnessTexture":{
					"index":5
				},
				"roughnessFactor":0.8211145401000977
			}
		},
		{
			"doubleSided":true,
			"name":"Plastic",
			"pbrMetallicRoughness":{
				"baseColorTexture":{
					"index":6
				},
				"metallicFactor":0,
				"roughnessFactor":0.8211145401000977
			}
		},
		{
			"doubleSided":true,
			"name":"material.001",
			"pbrMetallicRoughness":{
				"baseColorTexture":{
					"index":7
				},
				"metallicFactor":0,
				"roughnessFactor":0.8211145401000977
			}
		}
	],
	"meshes":[
		{
			"name":"Weed Plant Medium_b_Cannabis Leaf_0",
			"primitives":[
				{
					"attributes":{
						"POSITION":0,
						"NORMAL":1,
						"TEXCOORD_0":2
					},
					"indices":3,
					"material":0
				}
			]
		},
		{
			"name":"Weed Plant Medium_b_Fresh Bud_0",
			"primitives":[
				{
					"attributes":{
						"POSITION":4,
						"NORMAL":5,
						"TEXCOORD_0":6
					},
					"indices":7,
					"material":1
				}
			]
		},
		{
			"name":"Weed Plant Medium_b_Gravel_0",
			"primitives":[
				{
					"attributes":{
						"POSITION":8,
						"NORMAL":9,
						"TEXCOORD_0":10,
						"TEXCOORD_1":11
					},
					"indices":12,
					"material":2
				}
			]
		},
		{
			"name":"Weed Plant Medium_b_Metal_0",
			"primitives":[
				{
					"attributes":{
						"POSITION":13,
						"NORMAL":14,
						"TEXCOORD_0":15
					},
					"indices":16,
					"material":3
				}
			]
		},
		{
			"name":"Weed Plant Medium_b_Plastic_0",
			"primitives":[
				{
					"attributes":{
						"POSITION":17,
						"NORMAL":18,
						"TEXCOORD_0":19
					},
					"indices":20,
					"material":4
				}
			]
		},
		{
			"name":"Weed Plant Medium_b_Tag_0",
			"primitives":[
				{
					"attributes":{
						"POSITION":21,
						"NORMAL":22,
						"TEXCOORD_0":23
					},
					"indices":24,
					"material":5
				}
			]
		}
	],
	"textures":[
		{
			"sampler":0,
			"source":0
		},
		{
			"sampler":0,
			"source":1
		},
		{
			"sampler":0,
			"source":2
		},
		{
			"sampler":0,
			"source":3
		},
		{
			"sampler":0,
			"source":4
		},
		{
			"sampler":0,
			"source":5
		},
		{
			"sampler":0,
			"source":6
		},
		{
			"sampler":0,
			"source":7
		}
	],
	"images":[
		{
			"mimeType":"image/png",
			"name":"Image_0",
			"uri":"Image_0.png"
		},
		{
			"mimeType":"image/png",
			"name":"Image_7",
			"uri":"Image_7.png"
		},
		{
			"mimeType":"image/png",
			"name":"Image_5",
			"uri":"Image_5.png"
		},
		{
			"mimeType":"image/png",
			"name":"Image_4",
			"uri":"Image_4.png"
		},
		{
			"mimeType":"image/png",
			"name":"Image_2",
			"uri":"Image_2.png"
		},
		{
			"mimeType":"image/png",
			"name":"Image_3",
			"uri":"Image_3.png"
		},
		{
			"mimeType":"image/png",
			"name":"Image_1",
			"uri":"Image_1.png"
		},
		{
			"mimeType":"image/png",
			"name":"Image_6",
			"uri":"Image_6.png"
		}
	],
	"accessors":[
		{
			"bufferView":0,
			"componentType":5126,
			"count":4356,
			"max":[
				0.6181640625,
				0.58203125,
				1.79248046875
			],
			"min":[
				-0.60009765625,
				-0.59716796875,
				0.4345703125
			],
			"type":"VEC3"
		},
		{
			"bufferView":1,
			"componentType":5126,
			"count":4356,
			"type":"VEC3"
		},
		{
			"bufferView":2,
			"componentType":5126,
			"count":4356,
			"type":"VEC2"
		},
		{
			"bufferView":3,
			"componentType":5123,
			"count":9288,
			"type":"SCALAR"
		},
		{
			"bufferView":4,
			"componentType":5126,
			"count":570,
			"max":[
				0.0283203125,
				0.05419921875,
				1.77294921875
			],
			"min":[
				-0.04052734375,
				-0.041015625,
				1.48193359375
			],
			"type":"VEC3"
		},
		{
			"bufferView":5,
			"componentType":5126,
			"count":570,
			"type":"VEC3"
		},
		{
			"bufferView":6,
			"componentType":5126,
			"count":570,
			"type":"VEC2"
		},
		{
			"bufferView":7,
			"componentType":5123,
			"count":1344,
			"type":"SCALAR"
		},
		{
			"bufferView":8,
			"componentType":5126,
			"count":18,
			"max":[
				0.20361328125,
				0.201171875,
				0.4501953125
			],
			"min":[
				-0.20751953125,
				-0.20361328125,
				0.4501953125
			],
			"type":"VEC3"
		},
		{
			"bufferView":9,
			"componentType":5126,
			"count":18,
			"type":"VEC3"
		},
		{
			"bufferView":10,
			"componentType":5126,
			"count":18,
			"type":"VEC2"
		},
		{
			"bufferView":11,
			"componentType":5126,
			"count":18,
			"type":"VEC2"
		},
		{
			"bufferView":12,
			"componentType":5123,
			"count":48,
			"type":"SCALAR"
		},
		{
			"bufferView":13,
			"componentType":5126,
			"count":250,
			"max":[
				0.24951171875,
				0.025390625,
				0.29833984375
			],
			"min":[
				-0.24951171875,
				-0.025390625,
				0.25244140625
			],
			"type":"VEC3"
		},
		{
			"bufferView":14,
			"componentType":5126,
			"count":250,
			"type":"VEC3"
		},
		{
			"bufferView":15,
			"componentType":5126,
			"count":250,
			"type":"VEC2"
		},
		{
			"bufferView":16,
			"componentType":5123,
			"count":576,
			"type":"SCALAR"
		},
		{
			"bufferView":17,
			"componentType":5126,
			"count":895,
			"max":[
				0.2294921875,
				0.2265625,
				0.46923828125
			],
			"min":[
				-0.2333984375,
				-0.2294921875,
				0
			],
			"type":"VEC3"
		},
		{
			"bufferView":18,
			"componentType":5126,
			"count":895,
			"type":"VEC3"
		},
		{
			"bufferView":19,
			"componentType":5126,
			"count":895,
			"type":"VEC2"
		},
		{
			"bufferView":20,
			"componentType":5123,
			"count":2400,
			"type":"SCALAR"
		},
		{
			"bufferView":21,
			"componentType":5126,
			"count":42,
			"max":[
				-0.046875,
				0.16748046875,
				0.61328125
			],
			"min":[
				-0.0869140625,
				0.1328125,
				0.4404296875
			],
			"type":"VEC3"
		},
		{
			"bufferView":22,
			"componentType":5126,
			"count":42,
			"type":"VEC3"
		},
		{
			"bufferView":23,
			"componentType":5126,
			"count":42,
			"type":"VEC2"
		},
		{
			"bufferView":24,
			"componentType":5123,
			"count":78,
			"type":"SCALAR"
		}
	],
	"bufferViews":[
		{
			"buffer":0,
			"byteLength":52272,
			"byteOffset":0,
			"target":34962
		},
		{
			"buffer":0,
			"byteLength":52272,
			"byteOffset":52272,
			"target":34962
		},
		{
			"buffer":0,
			"byteLength":34848,
			"byteOffset":104544,
			"target":34962
		},
		{
			"buffer":0,
			"byteLength":18576,
			"byteOffset":139392,
			"target":34963
		},
		{
			"buffer":0,
			"byteLength":6840,
			"byteOffset":157968,
			"target":34962
		},
		{
			"buffer":0,
			"byteLength":6840,
			"byteOffset":164808,
			"target":34962
		},
		{
			"buffer":0,
			"byteLength":4560,
			"byteOffset":171648,
			"target":34962
		},
		{
			"buffer":0,
			"byteLength":2688,
			"byteOffset":176208,
			"target":34963
		},
		{
			"buffer":0,
			"byteLength":216,
			"byteOffset":178896,
			"target":34962
		},
		{
			"buffer":0,
			"byteLength":216,
			"byteOffset":179112,
			"target":34962
		},
		{
			"buffer":0,
			"byteLength":144,
			"byteOffset":179328,
			"target":34962
		},
		{
			"buffer":0,
			"byteLength":144,
			"byteOffset":179472,
			"target":34962
		},
		{
			"buffer":0,
			"byteLength":96,
			"byteOffset":179616,
			"target":34963
		},
		{
			"buffer":0,
			"byteLength":3000,
			"byteOffset":179712,
			"target":34962
		},
		{
			"buffer":0,
			"byteLength":3000,
			"byteOffset":182712,
			"target":34962
		},
		{
			"buffer":0,
			"byteLength":2000,
			"byteOffset":185712,
			"target":34962
		},
		{
			"buffer":0,
			"byteLength":1152,
			"byteOffset":187712,
			"target":34963
		},
		{
			"buffer":0,
			"byteLength":10740,
			"byteOffset":188864,
			"target":34962
		},
		{
			"buffer":0,
			"byteLength":10740,
			"byteOffset":199604,
			"target":34962
		},
		{
			"buffer":0,
			"byteLength":7160,
			"byteOffset":210344,
			"target":34962
		},
		{
			"buffer":0,
			"byteLength":4800,
			"byteOffset":217504,
			"target":34963
		},
		{
			"buffer":0,
			"byteLength":504,
			"byteOffset":222304,
			"target":34962
		},
		{
			"buffer":0,
			"byteLength":504,
			"byteOffset":222808,
			"target":34962
		},
		{
			"buffer":0,
			"byteLength":336,
			"byteOffset":223312,
			"target":34962
		},
		{
			"buffer":0,
			"byteLength":156,
			"byteOffset":223648,
			"target":34963
		}
	],
	"samplers":[
		{
			"magFilter":9729,
			"minFilter":9987
		}
	],
	"buffers":[
		{
			"byteLength":223804,
			"uri":"Plant1.bin"
		}
	]
}
